<svg xmlns="http://www.w3.org/2000/svg" xmlns:xlink="http://www.w3.org/1999/xlink" viewBox="0 0 60 60" version="1.1" x="0px" y="0px"><title>28 -Flower Soil- (Outline)</title><desc>Created with Sketch.</desc><g stroke="none" stroke-width="1" fill="none" fill-rule="evenodd"><g transform="translate(-942.000000, -580.000000)" fill="#000000"><g transform="translate(942.000000, 580.000000)"><path d="M29.001,44.0005 C28.921,44.0005 28.839,43.9915 28.758,43.9705 C28.222,43.8365 27.896,43.2935 28.03,42.7575 C29.881,35.3545 29.565,10.8035 23.251,3.6635 C22.885,3.2495 22.924,2.6175 23.338,2.2515 C23.751,1.8865 24.385,1.9245 24.749,2.3375 C28.823,6.9455 30.228,17.0695 30.702,22.6935 C31.356,30.4505 31.056,38.9005 29.97,43.2435 C29.856,43.6975 29.449,44.0005 29.001,44.0005"></path><path d="M29.4268,21.0005 C29.2868,21.0005 29.1448,20.9715 29.0088,20.9085 C28.5078,20.6775 28.2878,20.0835 28.5198,19.5815 C28.7768,19.0255 29.0458,18.0865 29.3318,17.0925 C29.9688,14.8755 30.7618,12.1175 32.2338,10.3585 C32.5858,9.9375 33.2168,9.8775 33.6418,10.2335 C34.0658,10.5875 34.1208,11.2185 33.7668,11.6425 C32.5678,13.0765 31.8388,15.6095 31.2538,17.6455 C30.9338,18.7605 30.6558,19.7245 30.3358,20.4195 C30.1668,20.7855 29.8058,21.0005 29.4268,21.0005"></path><path d="M29.8623,25.9199 C29.4463,25.9199 29.0583,25.6589 28.9163,25.2439 C28.5803,24.2629 27.1383,23.1489 25.9803,22.2529 L25.3803,21.7849 C24.9463,21.4419 24.8733,20.8129 25.2163,20.3799 C25.5583,19.9479 26.1863,19.8729 26.6203,20.2159 L27.2043,20.6709 C28.6443,21.7849 30.2773,23.0479 30.8083,24.5949 C30.9873,25.1179 30.7093,25.6869 30.1863,25.8649 C30.0793,25.9019 29.9693,25.9199 29.8623,25.9199"></path><path d="M41.9375,2.063 C37.8225,2.549 34.5475,5.822 34.0625,9.938 C38.1775,9.452 41.4525,6.179 41.9375,2.063 M32.9995,12.001 L31.9995,12.001 L31.9995,11.001 C31.9995,4.935 36.9345,0 42.9995,0 L44.0005,0 L44.0005,1.001 C44.0005,7.066 39.0655,12.001 32.9995,12.001"></path><path d="M19.3867,13.7915 C19.5477,15.2595 20.1677,16.6335 21.1847,17.7415 C22.2007,18.8495 23.5157,19.5845 24.9647,19.8725 C24.8037,18.4045 24.1837,17.0305 23.1667,15.9225 C22.1507,14.8145 20.8357,14.0795 19.3867,13.7915 L19.3867,13.7915 Z M26.9557,22.0425 L25.9567,21.9995 C20.9987,21.7855 17.1387,17.5785 17.3527,12.6205 L17.3957,11.6215 L18.3947,11.6645 C23.3527,11.8785 27.2127,16.0855 26.9987,21.0435 L26.9557,22.0425 Z"></path><path d="M30,28.2564 C29.893,28.2564 29.783,28.2384 29.676,28.2014 C29.153,28.0224 28.875,27.4544 29.054,26.9314 C29.585,25.3844 31.218,24.1224 32.658,23.0084 L33.242,22.5534 C33.678,22.2104 34.305,22.2844 34.646,22.7164 C34.989,23.1504 34.916,23.7784 34.482,24.1214 L33.882,24.5904 C32.724,25.4854 31.282,26.6004 30.946,27.5804 C30.804,27.9954 30.415,28.2564 30,28.2564"></path><path d="M40.4746,16.1289 C39.0266,16.4169 37.7106,17.1519 36.6956,18.2599 C35.6796,19.3669 35.0596,20.7399 34.8976,22.2079 C37.8686,21.6129 40.1366,19.1409 40.4746,16.1289 L40.4746,16.1289 Z M32.9066,24.3789 L32.8636,23.3799 C32.6496,18.4219 36.5096,14.2149 41.4676,14.0019 L42.4666,13.9589 L42.5096,14.9579 C42.7226,19.9159 38.8626,24.1229 33.9056,24.3369 L32.9066,24.3789 Z"></path><path d="M26.9033,9.2998 C26.8223,9.2998 26.7403,9.2898 26.6573,9.2698 C26.1223,9.1338 25.7983,8.5908 25.9323,8.0548 C26.5843,5.4728 28.0633,2.4998 29.2993,1.2868 C29.6923,0.8998 30.3253,0.9048 30.7143,1.2998 C31.1003,1.6948 31.0943,2.3278 30.7003,2.7148 C29.8293,3.5688 28.4843,6.1158 27.8723,8.5448 C27.7573,8.9978 27.3503,9.2998 26.9033,9.2998"></path><path d="M28.2617,14.0147 C28.0057,14.0147 27.7497,13.9167 27.5547,13.7227 L27.2407,13.4047 C26.2357,12.3827 24.3647,10.4817 22.6987,9.9537 C22.1717,9.7867 21.8797,9.2247 22.0467,8.6987 C22.2127,8.1727 22.7727,7.8777 23.3017,8.0477 C25.4417,8.7247 27.5387,10.8567 28.6657,12.0017 L28.9687,12.3067 C29.3597,12.6977 29.3597,13.3307 28.9687,13.7217 C28.7737,13.9167 28.5177,14.0147 28.2617,14.0147"></path><path d="M10.999,49.0005 C10.857,49.0005 10.713,48.9705 10.575,48.9055 C10.075,48.6705 9.86,48.0755 10.095,47.5755 C11.292,45.0245 12.275,29.7045 6.24,22.6505 C5.881,22.2305 5.931,21.5995 6.35,21.2405 C6.769,20.8835 7.4,20.9305 7.76,21.3505 C14.248,28.9345 13.585,44.8465 11.905,48.4255 C11.735,48.7885 11.375,49.0005 10.999,49.0005"></path><path d="M12.0156,44.0005 C11.8316,44.0005 11.6466,43.9505 11.4806,43.8445 C11.0146,43.5485 10.8756,42.9305 11.1716,42.4645 C11.5026,41.9435 11.9606,41.3305 12.4926,40.6185 C13.8006,38.8665 15.4286,36.6865 16.0446,34.7035 C16.2086,34.1765 16.7676,33.8805 17.2966,34.0455 C17.8246,34.2095 18.1196,34.7705 17.9546,35.2975 C17.2366,37.6075 15.4946,39.9405 14.0946,41.8155 C13.5876,42.4935 13.1506,43.0805 12.8616,43.5365 C12.6696,43.8365 12.3466,44.0005 12.0156,44.0005"></path><path d="M11.8437,44.9199 C11.4277,44.9199 11.0397,44.6589 10.8977,44.2439 C10.4407,42.9079 9.5927,41.7449 8.3797,40.7849 C7.9467,40.4419 7.8727,39.8129 8.2157,39.3799 C8.5587,38.9479 9.1867,38.8729 9.6197,39.2159 C11.1397,40.4179 12.2057,41.8909 12.7897,43.5949 C12.9687,44.1179 12.6907,44.6869 12.1677,44.8649 C12.0607,44.9019 11.9507,44.9199 11.8437,44.9199"></path><path d="M19.708,24.2398 C17.87,25.1928 16.589,26.6678 16.147,28.3688 C15.702,30.0858 16.101,31.9208 17.301,33.7148 C19.192,32.6148 20.476,30.9728 20.868,29.1188 C21.222,27.4488 20.82,25.7748 19.708,24.2398 L19.708,24.2398 Z M16.706,36.2448 L16.214,35.6178 C14.268,33.1418 13.557,30.3878 14.212,27.8658 C14.864,25.3538 16.833,23.2438 19.613,22.0778 L20.282,21.7978 L20.757,22.3458 C22.615,24.4958 23.351,27.0488 22.825,29.5318 C22.254,32.2338 20.286,34.5558 17.427,35.9048 L16.706,36.2448 Z"></path><path d="M2.082,33.083 C2.502,35.842 4.516,38.474 7.931,38.931 C7.474,35.516 4.841,33.502 2.082,33.083 L2.082,33.083 Z M10,41 L9,41 C3.366,41 0,36.424 0,32 L0,31 L1,31 C5.424,31 10,34.367 10,40 L10,41 Z"></path><path d="M9.9551,28.1934 C9.8741,28.1934 9.7921,28.1834 9.7091,28.1634 C9.1741,28.0274 8.8501,27.4844 8.9841,26.9484 C9.6371,24.3654 11.0611,21.5014 12.3001,20.2864 C12.6921,19.9004 13.3251,19.9044 13.7141,20.3004 C14.1011,20.6944 14.0951,21.3274 13.7001,21.7144 C12.7241,22.6724 11.4781,25.2394 10.9241,27.4384 C10.8091,27.8914 10.4021,28.1934 9.9551,28.1934"></path><path d="M11.29,33.0005 C11.034,33.0005 10.778,32.9025 10.583,32.7085 L10.33,32.4525 C9.379,31.4925 7.401,29.4935 5.698,28.9535 C5.172,28.7875 4.88,28.2255 5.047,27.6985 C5.213,27.1725 5.772,26.8775 6.302,27.0475 C8.476,27.7355 10.606,29.8895 11.751,31.0455 L11.997,31.2925 C12.388,31.6835 12.388,32.3165 11.997,32.7075 C11.802,32.9025 11.546,33.0005 11.29,33.0005"></path><path d="M43.999,49.0005 C43.857,49.0005 43.713,48.9705 43.575,48.9055 C43.075,48.6705 42.86,48.0755 43.095,47.5755 C44.332,44.9405 45.034,31.9615 40.573,24.5165 C40.289,24.0425 40.443,23.4285 40.917,23.1445 C41.389,22.8615 42.005,23.0155 42.288,23.4885 C47.118,31.5495 46.467,45.0985 44.905,48.4255 C44.735,48.7885 44.375,49.0005 43.999,49.0005"></path><path d="M44.999,40.0005 C44.859,40.0005 44.717,39.9715 44.581,39.9085 C44.08,39.6775 43.86,39.0835 44.092,38.5815 C44.332,38.0615 44.606,37.2675 44.925,36.3475 C45.723,34.0425 46.715,31.1735 48.233,29.3585 C48.586,28.9375 49.216,28.8775 49.642,29.2335 C50.065,29.5875 50.121,30.2185 49.767,30.6425 C48.484,32.1745 47.52,34.9645 46.815,37.0015 C46.479,37.9715 46.189,38.8095 45.908,39.4195 C45.739,39.7855 45.378,40.0005 44.999,40.0005"></path><path d="M44.8437,44.9199 C44.4277,44.9199 44.0397,44.6589 43.8977,44.2439 C43.4407,42.9079 42.5927,41.7449 41.3797,40.7849 C40.9467,40.4419 40.8727,39.8129 41.2157,39.3799 C41.5587,38.9479 42.1867,38.8729 42.6197,39.2159 C44.1397,40.4179 45.2057,41.8909 45.7897,43.5949 C45.9687,44.1179 45.6907,44.6869 45.1677,44.8649 C45.0607,44.9019 44.9507,44.9199 44.8437,44.9199"></path><path d="M57.9375,21.063 C53.8225,21.549 50.5475,24.822 50.0625,28.938 C54.1775,28.452 57.4525,25.179 57.9375,21.063 M48.9995,31.001 L47.9995,31.001 L47.9995,30.001 C47.9995,23.935 52.9345,19 58.9995,19 L60.0005,19 L60.0005,20.001 C60.0005,26.066 55.0655,31.001 48.9995,31.001"></path><path d="M35.3867,32.7915 C35.5477,34.2595 36.1677,35.6335 37.1847,36.7415 C38.2007,37.8495 39.5157,38.5845 40.9647,38.8725 C40.8037,37.4045 40.1837,36.0305 39.1667,34.9225 C38.1507,33.8145 36.8357,33.0795 35.3867,32.7915 L35.3867,32.7915 Z M42.9557,41.0425 L41.9567,40.9995 C36.9987,40.7855 33.1387,36.5785 33.3527,31.6205 L33.3957,30.6215 L34.3947,30.6645 C39.3527,30.8785 43.2127,35.0855 42.9987,40.0435 L42.9557,41.0425 Z"></path><path d="M42.9551,28.1934 C42.8741,28.1934 42.7921,28.1834 42.7091,28.1634 C42.1741,28.0274 41.8501,27.4844 41.9841,26.9484 C42.6371,24.3654 44.0611,21.5014 45.3001,20.2864 C45.6921,19.9004 46.3251,19.9044 46.7141,20.3004 C47.1011,20.6944 47.0951,21.3274 46.7001,21.7144 C45.7241,22.6724 44.4781,25.2394 43.9241,27.4384 C43.8091,27.8914 43.4021,28.1934 42.9551,28.1934"></path><path d="M44.29,33.0005 C44.034,33.0005 43.778,32.9025 43.583,32.7085 L43.33,32.4525 C42.379,31.4925 40.401,29.4935 38.698,28.9535 C38.172,28.7875 37.88,28.2255 38.047,27.6985 C38.213,27.1725 38.771,26.8775 39.302,27.0475 C41.476,27.7355 43.606,29.8895 44.751,31.0455 L44.997,31.2925 C45.388,31.6835 45.388,32.3165 44.997,32.7075 C44.802,32.9025 44.546,33.0005 44.29,33.0005"></path><path d="M5.4199,51.9976 C4.7609,51.9976 4.2739,52.0346 3.6629,52.3736 C2.5609,52.9866 2.0019,53.5606 2.0059,54.9976 C2.0099,56.4176 3.2399,58.0006 4.9999,58.0006 L52.7479,58.0006 C55.5629,58.0006 57.9169,55.8266 57.9969,53.1556 C58.0389,51.7896 57.5379,50.4976 56.5889,49.5186 C55.6389,48.5396 54.3639,48.0006 52.9999,48.0006 C50.8899,48.0006 49.5629,48.4986 48.8219,49.5696 C48.6579,49.8076 48.3989,49.9626 48.1099,49.9946 C47.8189,50.0276 47.5339,49.9326 47.3219,49.7356 C46.5639,49.0366 45.5659,49.0006 43.9999,49.0006 C42.2659,49.0006 40.8689,50.3866 40.3069,51.6756 C40.0149,52.3456 39.4059,52.8286 38.6789,52.9666 C37.9299,53.1096 37.1589,52.8726 36.6209,52.3346 C36.2319,51.9446 35.9979,51.4126 35.9629,50.8356 C35.7299,47.0676 32.6069,44.0006 28.9999,44.0006 C26.6489,44.0006 24.6609,44.9236 23.4029,46.6006 C23.2439,46.8126 23.0069,46.9536 22.7439,46.9906 C22.4819,47.0266 22.2149,46.9586 22.0019,46.7996 C21.2779,46.2546 20.3239,46.0006 18.9999,46.0006 C16.9829,46.0006 15.1719,47.2036 14.3899,49.0636 C14.2779,49.3276 14.0599,49.5316 13.7889,49.6236 C13.5189,49.7136 13.2199,49.6866 12.9719,49.5446 C12.3399,49.1836 11.6769,49.0006 10.9999,49.0006 C9.1289,49.0006 7.4579,49.9676 6.9359,51.3526 C6.7889,51.7426 6.4159,52.0006 5.9999,52.0006 L5.6949,51.9986 C5.5999,51.9986 5.5079,51.9976 5.4199,51.9976 M52.7479,60.0006 L4.9999,60.0006 C2.0199,60.0006 0.0119,57.4166 0.0059,55.0026 C-0.0021,52.4656 1.3589,51.3666 2.6919,50.6256 C3.7009,50.0646 4.5539,50.0006 5.3659,49.9976 C6.3809,48.1806 8.5529,47.0006 10.9999,47.0006 C11.6899,47.0006 12.3639,47.1226 13.0179,47.3646 C14.2739,45.2926 16.5249,44.0006 18.9999,44.0006 C20.3429,44.0006 21.4619,44.2296 22.3949,44.6996 C24.0249,42.9736 26.3829,42.0006 28.9999,42.0006 C33.6429,42.0006 37.6619,45.9096 37.9589,50.7136 C37.9619,50.7656 37.9769,50.8616 38.0359,50.9206 C38.1409,51.0246 38.2689,51.0076 38.3059,51.0016 C38.3879,50.9866 38.4439,50.9436 38.4739,50.8756 C39.3159,48.9466 41.3519,47.0006 43.9999,47.0006 C45.3059,47.0006 46.6479,47.0006 47.8359,47.6566 C48.9949,46.5436 50.6959,46.0006 52.9999,46.0006 C54.9099,46.0006 56.6939,46.7556 58.0239,48.1266 C59.3539,49.4966 60.0549,51.3036 59.9969,53.2156 C59.8839,56.9566 56.6329,60.0006 52.7479,60.0006"></path><path d="M10,57.0005 L8,57.0005 C7.447,57.0005 7,56.5525 7,56.0005 C7,55.4485 7.447,55.0005 8,55.0005 L10,55.0005 C10.553,55.0005 11,55.4485 11,56.0005 C11,56.5525 10.553,57.0005 10,57.0005"></path><path d="M15,54.0005 L14,54.0005 C13.447,54.0005 13,53.5525 13,53.0005 C13,52.4485 13.447,52.0005 14,52.0005 L15,52.0005 C15.553,52.0005 16,52.4485 16,53.0005 C16,53.5525 15.553,54.0005 15,54.0005"></path><path d="M22,51.0005 L20,51.0005 C19.447,51.0005 19,50.5525 19,50.0005 C19,49.4485 19.447,49.0005 20,49.0005 L22,49.0005 C22.553,49.0005 23,49.4485 23,50.0005 C23,50.5525 22.553,51.0005 22,51.0005"></path><path d="M25,57.0005 L21,57.0005 C20.447,57.0005 20,56.5525 20,56.0005 C20,55.4485 20.447,55.0005 21,55.0005 L25,55.0005 C25.553,55.0005 26,55.4485 26,56.0005 C26,56.5525 25.553,57.0005 25,57.0005"></path><path d="M39,57.0005 L35,57.0005 C34.447,57.0005 34,56.5525 34,56.0005 C34,55.4485 34.447,55.0005 35,55.0005 L39,55.0005 C39.553,55.0005 40,55.4485 40,56.0005 C40,56.5525 39.553,57.0005 39,57.0005"></path><path d="M52,55.0005 L48,55.0005 C47.447,55.0005 47,54.5525 47,54.0005 C47,53.4485 47.447,53.0005 48,53.0005 L52,53.0005 C52.553,53.0005 53,53.4485 53,54.0005 C53,54.5525 52.553,55.0005 52,55.0005"></path><path d="M45,53.0005 L43,53.0005 C42.447,53.0005 42,52.5525 42,52.0005 C42,51.4485 42.447,51.0005 43,51.0005 L45,51.0005 C45.553,51.0005 46,51.4485 46,52.0005 C46,52.5525 45.553,53.0005 45,53.0005"></path><path d="M31,49.0005 L29,49.0005 C28.447,49.0005 28,48.5525 28,48.0005 C28,47.4485 28.447,47.0005 29,47.0005 L31,47.0005 C31.553,47.0005 32,47.4485 32,48.0005 C32,48.5525 31.553,49.0005 31,49.0005"></path><path d="M29,53.0005 L27,53.0005 C26.447,53.0005 26,52.5525 26,52.0005 C26,51.4485 26.447,51.0005 27,51.0005 L29,51.0005 C29.553,51.0005 30,51.4485 30,52.0005 C30,52.5525 29.553,53.0005 29,53.0005"></path></g></g></g></svg>