<?xml version="1.0" encoding="UTF-8" standalone="no"?>
<!-- Generator: Adobe Illustrator 19.0.0, SVG Export Plug-In . SVG Version: 6.00 Build 0)  -->

<svg
   xmlns:dc="http://purl.org/dc/elements/1.1/"
   xmlns:cc="http://creativecommons.org/ns#"
   xmlns:rdf="http://www.w3.org/1999/02/22-rdf-syntax-ns#"
   xmlns:svg="http://www.w3.org/2000/svg"
   xmlns="http://www.w3.org/2000/svg"
   xmlns:sodipodi="http://sodipodi.sourceforge.net/DTD/sodipodi-0.dtd"
   xmlns:inkscape="http://www.inkscape.org/namespaces/inkscape"
   version="1.1"
   id="Layer_1"
   x="0px"
   y="0px"
   viewBox="0 0 64 64"
   xml:space="preserve"
   sodipodi:docname="flag_sl.svg"
   width="64"
   height="64"
   inkscape:version="0.92.1 r"><metadata
     id="metadata141"><rdf:RDF><cc:Work
         rdf:about=""><dc:format>image/svg+xml</dc:format><dc:type
           rdf:resource="http://purl.org/dc/dcmitype/StillImage" /><dc:title></dc:title></cc:Work></rdf:RDF></metadata><defs
     id="defs139" /><sodipodi:namedview
     pagecolor="#ffffff"
     bordercolor="#666666"
     borderopacity="1"
     objecttolerance="10"
     gridtolerance="10"
     guidetolerance="10"
     inkscape:pageopacity="0"
     inkscape:pageshadow="2"
     inkscape:window-width="1236"
     inkscape:window-height="801"
     id="namedview137"
     showgrid="false"
     inkscape:zoom="1"
     inkscape:cx="221.86433"
     inkscape:cy="271.28749"
     inkscape:window-x="0"
     inkscape:window-y="23"
     inkscape:window-maximized="0"
     inkscape:current-layer="Layer_1" /><path
     style="fill:#259245;stroke-width:0.125"
     d="M 50.48762,0.91075 H 15.51237 c -7.512,0 -13.60162,6.08975 -13.60162,13.60162 V 21.637 H 64.08913 V 14.51237 C 64.08925,7.0005 57.99962,0.91075 50.48762,0.91075 Z"
     id="path98"
     inkscape:connector-curvature="0" /><path
     style="fill:#164fce;stroke-width:0.125"
     d="m 1.91075,49.48762 c 0,7.51188 6.08962,13.60151 13.6015,13.60151 h 34.97537 c 7.51188,0 13.60151,-6.08963 13.60151,-13.60151 V 42.363 H 1.91075 Z"
     id="path100"
     inkscape:connector-curvature="0" /><rect
     x="1.9107513"
     y="21.637497"
     style="fill:#ffffff;stroke-width:0.125"
     width="62.178749"
     height="20.72625"
     id="rect102" /><path
     d="M 50.48762,0 H 15.51237 C 7.51025,0 1,6.51025 1,14.51237 V 49.48775 C 1,57.48975 7.51025,64 15.51237,64 H 50.48775 C 58.48975,64 65,57.48975 65,49.48762 V 14.51237 C 65,6.51025 58.48975,0 50.48762,0 Z M 15.51237,1.82162 h 34.97538 c 6.99762,0 12.69075,5.693 12.69075,12.69075 v 6.21388 H 59.944 c -0.50313,0 -0.91075,0.40775 -0.91075,0.91075 0,0.50312 0.40775,0.91087 0.91075,0.91087 h 3.2345 V 41.45225 H 2.82162 v -18.9045 h 52.97713 c 0.50312,0 0.91088,-0.40775 0.91088,-0.91088 0,-0.50312 -0.40776,-0.91075 -0.91088,-0.91075 H 2.82162 v -6.21387 c 0,-6.9975 5.69313,-12.69063 12.69075,-12.69063 z M 50.48762,62.17838 H 15.51237 c -6.99762,0 -12.69075,-5.69313 -12.69075,-12.69076 v -6.21387 h 60.35676 v 6.21387 c 0,6.99763 -5.69313,12.69076 -12.69076,12.69076 z"
     id="path104"
     inkscape:connector-curvature="0"
     style="stroke-width:0.125" /><g
     id="g106"
     transform="translate(0,-448)" /><g
     id="g108"
     transform="translate(0,-448)" /><g
     id="g110"
     transform="translate(0,-448)" /><g
     id="g112"
     transform="translate(0,-448)" /><g
     id="g114"
     transform="translate(0,-448)" /><g
     id="g116"
     transform="translate(0,-448)" /><g
     id="g118"
     transform="translate(0,-448)" /><g
     id="g120"
     transform="translate(0,-448)" /><g
     id="g122"
     transform="translate(0,-448)" /><g
     id="g124"
     transform="translate(0,-448)" /><g
     id="g126"
     transform="translate(0,-448)" /><g
     id="g128"
     transform="translate(0,-448)" /><g
     id="g130"
     transform="translate(0,-448)" /><g
     id="g132"
     transform="translate(0,-448)" /><g
     id="g134"
     transform="translate(0,-448)" /></svg>