<?xml version="1.0" encoding="UTF-8" standalone="no"?>
<!-- Generator: Adobe Illustrator 19.0.0, SVG Export Plug-In . SVG Version: 6.00 Build 0)  -->

<svg
   xmlns:dc="http://purl.org/dc/elements/1.1/"
   xmlns:cc="http://creativecommons.org/ns#"
   xmlns:rdf="http://www.w3.org/1999/02/22-rdf-syntax-ns#"
   xmlns:svg="http://www.w3.org/2000/svg"
   xmlns="http://www.w3.org/2000/svg"
   xmlns:sodipodi="http://sodipodi.sourceforge.net/DTD/sodipodi-0.dtd"
   xmlns:inkscape="http://www.inkscape.org/namespaces/inkscape"
   version="1.1"
   id="Layer_1"
   x="0px"
   y="0px"
   viewBox="0 0 64 64"
   xml:space="preserve"
   sodipodi:docname="flag_gn.svg"
   width="64"
   height="64"
   inkscape:version="0.92.1 r"><metadata
     id="metadata3944"><rdf:RDF><cc:Work
         rdf:about=""><dc:format>image/svg+xml</dc:format><dc:type
           rdf:resource="http://purl.org/dc/dcmitype/StillImage" /><dc:title></dc:title></cc:Work></rdf:RDF></metadata><defs
     id="defs3942" /><sodipodi:namedview
     pagecolor="#ffffff"
     bordercolor="#666666"
     borderopacity="1"
     objecttolerance="10"
     gridtolerance="10"
     guidetolerance="10"
     inkscape:pageopacity="0"
     inkscape:pageshadow="2"
     inkscape:window-width="709"
     inkscape:window-height="480"
     id="namedview3940"
     showgrid="false"
     fit-margin-top="0"
     fit-margin-left="0"
     fit-margin-right="0"
     fit-margin-bottom="0"
     inkscape:zoom="0.4609375"
     inkscape:cx="32"
     inkscape:cy="32"
     inkscape:window-x="0"
     inkscape:window-y="23"
     inkscape:window-maximized="0"
     inkscape:current-layer="Layer_1" /><rect
     x="21.637497"
     y="0.91075134"
     style="fill:#ffe000;stroke-width:0.125"
     width="20.72625"
     height="62.178749"
     id="rect3901" /><path
     style="fill:#ed1f34;stroke-width:0.125"
     d="m 14.51237,0.91075 c -7.512,0 -13.60162,6.08975 -13.60162,13.60162 v 34.97538 c 0,7.51187 6.08962,13.6015 13.6015,13.6015 h 7.12462 V 0.91075 Z"
     id="path3903"
     inkscape:connector-curvature="0" /><path
     style="fill:#259245;stroke-width:0.125"
     d="M 49.48762,0.91075 H 42.363 v 62.17838 h 7.12462 c 7.51188,0 13.60151,-6.08963 13.60151,-13.60151 V 14.51237 C 63.08925,7.0005 56.99962,0.91075 49.48762,0.91075 Z"
     id="path3905"
     inkscape:connector-curvature="0" /><path
     d="M 49.48762,0 H 14.51237 C 6.51025,0 0,6.51025 0,14.51237 V 49.48775 C 0,57.48975 6.51025,64 14.51237,64 H 49.48775 C 57.48975,64 64,57.48975 64,49.48762 V 14.51237 C 64,6.51025 57.48975,0 49.48762,0 Z m -28.7615,62.17838 h -6.21375 c -6.99775,0 -12.69075,-5.69313 -12.69075,-12.69076 V 14.51237 c 0,-6.99762 5.693,-12.69075 12.69075,-12.69075 h 6.21375 z M 62.17838,49.48762 c 0,6.99763 -5.69313,12.69076 -12.69076,12.69076 H 43.27375 V 19.56425 c 0,-0.50313 -0.40775,-0.91075 -0.91075,-0.91075 -0.50313,0 -0.91087,0.40775 -0.91087,0.91075 V 62.17838 H 22.54775 V 1.82162 h 18.9045 V 13.3465 c 0,0.50312 0.40775,0.91075 0.91087,0.91075 0.50313,0 0.91075,-0.40775 0.91075,-0.91075 V 1.82162 h 6.21388 c 6.99762,0 12.69075,5.693 12.69075,12.69075 z"
     id="path3907"
     inkscape:connector-curvature="0"
     style="stroke-width:0.125" /><g
     id="g3909"
     transform="translate(-224,-224)" /><g
     id="g3911"
     transform="translate(-224,-224)" /><g
     id="g3913"
     transform="translate(-224,-224)" /><g
     id="g3915"
     transform="translate(-224,-224)" /><g
     id="g3917"
     transform="translate(-224,-224)" /><g
     id="g3919"
     transform="translate(-224,-224)" /><g
     id="g3921"
     transform="translate(-224,-224)" /><g
     id="g3923"
     transform="translate(-224,-224)" /><g
     id="g3925"
     transform="translate(-224,-224)" /><g
     id="g3927"
     transform="translate(-224,-224)" /><g
     id="g3929"
     transform="translate(-224,-224)" /><g
     id="g3931"
     transform="translate(-224,-224)" /><g
     id="g3933"
     transform="translate(-224,-224)" /><g
     id="g3935"
     transform="translate(-224,-224)" /><g
     id="g3937"
     transform="translate(-224,-224)" /></svg>