<?xml version="1.0" encoding="UTF-8" standalone="no"?>
<!-- Generator: Adobe Illustrator 19.0.0, SVG Export Plug-In . SVG Version: 6.00 Build 0)  -->

<svg
   xmlns:dc="http://purl.org/dc/elements/1.1/"
   xmlns:cc="http://creativecommons.org/ns#"
   xmlns:rdf="http://www.w3.org/1999/02/22-rdf-syntax-ns#"
   xmlns:svg="http://www.w3.org/2000/svg"
   xmlns="http://www.w3.org/2000/svg"
   xmlns:sodipodi="http://sodipodi.sourceforge.net/DTD/sodipodi-0.dtd"
   xmlns:inkscape="http://www.inkscape.org/namespaces/inkscape"
   version="1.1"
   id="Layer_1"
   x="0px"
   y="0px"
   viewBox="0 0 64 64"
   xml:space="preserve"
   sodipodi:docname="malawi.svg"
   inkscape:version="0.92.1 r"
   width="64"
   height="64"><metadata
     id="metadata4224"><rdf:RDF><cc:Work
         rdf:about=""><dc:format>image/svg+xml</dc:format><dc:type
           rdf:resource="http://purl.org/dc/dcmitype/StillImage" /><dc:title></dc:title></cc:Work></rdf:RDF></metadata><defs
     id="defs4222" /><sodipodi:namedview
     pagecolor="#ffffff"
     bordercolor="#666666"
     borderopacity="1"
     objecttolerance="10"
     gridtolerance="10"
     guidetolerance="10"
     inkscape:pageopacity="0"
     inkscape:pageshadow="2"
     inkscape:window-width="1163"
     inkscape:window-height="480"
     id="namedview4220"
     showgrid="false"
     inkscape:zoom="0.4609375"
     inkscape:cx="-231.20096"
     inkscape:cy="-7.7174084"
     inkscape:window-x="0"
     inkscape:window-y="23"
     inkscape:window-maximized="0"
     inkscape:current-layer="Layer_1"
     showguides="false"
     fit-margin-top="0"
     fit-margin-left="0"
     fit-margin-right="0"
     fit-margin-bottom="0" /><path
     style="fill:#333333;stroke-width:0.125"
     d="M 49.48762,0.91075 H 14.51237 c -7.512,0 -13.60162,6.08975 -13.60162,13.60162 V 21.637 H 63.08913 V 14.51237 C 63.08925,7.0005 56.99962,0.91075 49.48762,0.91075 Z"
     id="path4175"
     inkscape:connector-curvature="0" /><path
     style="fill:#259245;stroke-width:0.125"
     d="m 0.91075,49.48762 c 0,7.51188 6.08962,13.60151 13.6015,13.60151 h 34.97537 c 7.51188,0 13.60151,-6.08963 13.60151,-13.60151 V 42.363 H 0.91075 Z"
     id="path4177"
     inkscape:connector-curvature="0" /><g
     id="g4185"
     transform="scale(0.125)"><path
       style="fill:#ed1f34"
       d="m 334.265,175.365 c -4.024,0 -7.286,-3.262 -7.286,-7.287 0,-47.366 -38.535,-85.901 -85.901,-85.901 -47.366,0 -85.901,38.535 -85.901,85.901 0,4.025 -3.262,7.287 -7.286,7.287 -4.024,0 -7.287,-3.262 -7.287,-7.287 0,-55.401 45.073,-100.474 100.474,-100.474 55.401,0 100.474,45.073 100.474,100.474 -0.001,4.025 -3.263,7.287 -7.287,7.287 z"
       id="path4179"
       inkscape:connector-curvature="0" /><circle
       style="fill:#ed1f34;stroke:#ed1f34;stroke-width:15;stroke-linecap:round;stroke-linejoin:round;stroke-miterlimit:10"
       cx="241.08"
       cy="168.08"
       r="55.23"
       id="circle4181" /><rect
       x="7.2859998"
       y="173.10001"
       style="fill:#ed1f34"
       width="497.42999"
       height="165.81"
       id="rect4183" /></g><path
     d="M 49.48762,0 H 14.51237 C 6.51025,0 0,6.51025 0,14.51237 V 49.48775 C 0,57.48975 6.51025,64 14.51237,64 H 49.48775 C 57.48975,64 64,57.48975 64,49.48762 V 14.51237 C 64,6.51025 57.48975,0 49.48762,0 Z M 14.51237,1.82162 h 34.97538 c 6.99762,0 12.69075,5.693 12.69075,12.69075 v 6.21388 H 1.82162 v -6.21388 c 0,-6.99762 5.693,-12.69075 12.69075,-12.69075 z M 49.48762,62.17838 H 14.51237 c -6.99775,0 -12.69075,-5.69313 -12.69075,-12.69076 v -6.21387 h 52.97713 c 0.503,0 0.91088,-0.40775 0.91088,-0.91075 0,-0.50313 -0.40776,-0.91087 -0.91088,-0.91087 H 1.82162 V 22.54775 H 62.17838 V 41.45213 H 58.944 c -0.503,0 -0.91075,0.40774 -0.91075,0.91087 0,0.50312 0.40775,0.91075 0.91075,0.91075 h 3.23438 v 6.21387 c 0,6.99763 -5.69301,12.69076 -12.69076,12.69076 z"
     id="path4187"
     inkscape:connector-curvature="0"
     style="stroke-width:0.125" /><g
     id="g4189"
     transform="translate(-224,-224)" /><g
     id="g4191"
     transform="translate(-224,-224)" /><g
     id="g4193"
     transform="translate(-224,-224)" /><g
     id="g4195"
     transform="translate(-224,-224)" /><g
     id="g4197"
     transform="translate(-224,-224)" /><g
     id="g4199"
     transform="translate(-224,-224)" /><g
     id="g4201"
     transform="translate(-224,-224)" /><g
     id="g4203"
     transform="translate(-224,-224)" /><g
     id="g4205"
     transform="translate(-224,-224)" /><g
     id="g4207"
     transform="translate(-224,-224)" /><g
     id="g4209"
     transform="translate(-224,-224)" /><g
     id="g4211"
     transform="translate(-224,-224)" /><g
     id="g4213"
     transform="translate(-224,-224)" /><g
     id="g4215"
     transform="translate(-224,-224)" /><g
     id="g4217"
     transform="translate(-224,-224)" /></svg>