<?xml version="1.0" encoding="UTF-8" standalone="no"?>
<!-- Generator: Adobe Illustrator 19.0.0, SVG Export Plug-In . SVG Version: 6.00 Build 0)  -->

<svg
   xmlns:dc="http://purl.org/dc/elements/1.1/"
   xmlns:cc="http://creativecommons.org/ns#"
   xmlns:rdf="http://www.w3.org/1999/02/22-rdf-syntax-ns#"
   xmlns:svg="http://www.w3.org/2000/svg"
   xmlns="http://www.w3.org/2000/svg"
   xmlns:sodipodi="http://sodipodi.sourceforge.net/DTD/sodipodi-0.dtd"
   xmlns:inkscape="http://www.inkscape.org/namespaces/inkscape"
   version="1.1"
   id="Layer_1"
   x="0px"
   y="0px"
   viewBox="0 0 64 64"
   xml:space="preserve"
   sodipodi:docname="ghana.svg"
   width="64"
   height="64"
   inkscape:version="0.92.1 r"><metadata
     id="metadata149"><rdf:RDF><cc:Work
         rdf:about=""><dc:format>image/svg+xml</dc:format><dc:type
           rdf:resource="http://purl.org/dc/dcmitype/StillImage" /><dc:title></dc:title></cc:Work></rdf:RDF></metadata><defs
     id="defs147" /><sodipodi:namedview
     pagecolor="#ffffff"
     bordercolor="#666666"
     borderopacity="1"
     objecttolerance="10"
     gridtolerance="10"
     guidetolerance="10"
     inkscape:pageopacity="0"
     inkscape:pageshadow="2"
     inkscape:window-width="1276"
     inkscape:window-height="773"
     id="namedview145"
     showgrid="false"
     fit-margin-top="0"
     fit-margin-left="0"
     fit-margin-right="0"
     fit-margin-bottom="0"
     inkscape:zoom="0.92382812"
     inkscape:cx="256"
     inkscape:cy="256"
     inkscape:window-x="0"
     inkscape:window-y="23"
     inkscape:window-maximized="0"
     inkscape:current-layer="Layer_1" /><rect
     x="3.008003"
     y="22.787603"
     style="fill:#ffe000;stroke-width:0.125"
     width="62.178749"
     height="20.72625"
     id="rect102" /><polygon
     style="fill:#333333"
     points="311.789,243.475 279.805,269.336 290.48,309.059 256,286.631 221.52,309.059 232.195,269.336 200.211,243.475 241.288,241.352 256,202.941 270.712,241.352 "
     id="polygon104"
     transform="matrix(0.125,0,0,0.125,2.0972516,1.1501057)" /><path
     style="fill:#259245;stroke-width:0.125"
     d="m 3.0080016,50.637736 c 0,7.51187 6.08962,13.6015 13.6015004,13.6015 h 34.97537 c 7.51188,0 13.60151,-6.08963 13.60151,-13.6015 v -7.12463 H 3.0080016 Z"
     id="path106"
     inkscape:connector-curvature="0" /><path
     style="fill:#ed1f34;stroke-width:0.125"
     d="m 51.584872,2.0608557 h -34.97525 c -7.5120004,0 -13.6016204,6.08975 -13.6016204,13.6016303 v 7.12462 H 65.186382 v -7.12462 C 65.186502,8.1506057 59.096872,2.0608557 51.584872,2.0608557 Z"
     id="path108"
     inkscape:connector-curvature="0" /><path
     d="m 41.118002,30.674736 -4.543,-0.23475 -1.62713,-4.24813 c -0.135,-0.35237 -0.47324,-0.585 -0.85062,-0.585 -0.37738,0 -0.71563,0.23262 -0.85063,0.585 l -1.62712,4.24813 -4.543,0.23475 c -0.37675,0.0195 -0.70263,0.26937 -0.81925,0.62825 -0.11663,0.35887 1.2e-4,0.7525 0.29362,0.98962 l 3.53738,2.86013 -1.18063,4.39325 c -0.0979,0.36437 0.039,0.75137 0.34425,0.97325 0.30525,0.22187 0.71563,0.2325 1.032,0.0267 l 3.81338,-2.4805 3.81337,2.4805 c 0.15125,0.0985 0.32401,0.14725 0.49663,0.14725 0.18825,0 0.37612,-0.0582 0.53537,-0.174 0.30525,-0.22175 0.44225,-0.60888 0.34425,-0.97325 l -1.18062,-4.39325 3.53737,-2.86013 c 0.2935,-0.23712 0.41026,-0.63075 0.29363,-0.98962 -0.11675,-0.35888 -0.4425,-0.60875 -0.81925,-0.62825 z m -4.61788,3.43412 c -0.28012,0.2265 -0.40037,0.59675 -0.307,0.94463 l 0.71726,2.66887 -2.31651,-1.50687 c -0.151,-0.0983 -0.32375,-0.14725 -0.49662,-0.14725 -0.17288,0 -0.34562,0.0491 -0.49663,0.14725 l -2.3165,1.50687 0.71725,-2.66887 c 0.0935,-0.34788 -0.0269,-0.71813 -0.307,-0.94463 l -2.14887,-1.7375 2.75987,-0.1425 c 0.35976,-0.0186 0.67476,-0.2475 0.8035,-0.58387 l 0.98838,-2.58075 0.9885,2.58062 c 0.12887,0.33638 0.44387,0.56525 0.8035,0.58388 l 2.75987,0.1425 z"
     id="path110"
     inkscape:connector-curvature="0"
     style="stroke-width:0.125" /><path
     d="m 51.584872,1.1501057 h -34.97525 c -8.0021204,0 -14.5123704,6.51025 -14.5123704,14.5123803 v 34.97537 c 0,8.002 6.51025,14.51225 14.5123704,14.51225 h 34.97538 c 8.002,0 14.51225,-6.51025 14.51225,-14.51237 v -34.97525 c 0,-8.0021303 -6.51025,-14.5123803 -14.51238,-14.5123803 z m -34.97525,1.82162 h 34.97538 c 6.99762,0 12.69075,5.69301 12.69075,12.6907603 v 6.21387 H 3.9188716 v -6.21387 c 0,-6.9976303 5.693,-12.6907603 12.6907504,-12.6907603 z m 34.97525,60.3567603 h -34.97525 c -6.9977504,0 -12.6907504,-5.69313 -12.6907504,-12.69075 v -6.21388 H 56.896002 c 0.503,0 0.91088,-0.40775 0.91088,-0.91075 0,-0.50312 -0.40776,-0.91087 -0.91088,-0.91087 H 3.9188716 V 23.697856 H 64.275632 v 18.90438 h -3.23438 c -0.503,0 -0.91075,0.40775 -0.91075,0.91087 0,0.50313 0.40775,0.91075 0.91075,0.91075 h 3.23438 v 6.21388 c 0,6.99762 -5.69301,12.69075 -12.69076,12.69075 z"
     id="path112"
     inkscape:connector-curvature="0"
     style="stroke-width:0.125" /><g
     id="g114"
     transform="translate(0,-448)" /><g
     id="g116"
     transform="translate(0,-448)" /><g
     id="g118"
     transform="translate(0,-448)" /><g
     id="g120"
     transform="translate(0,-448)" /><g
     id="g122"
     transform="translate(0,-448)" /><g
     id="g124"
     transform="translate(0,-448)" /><g
     id="g126"
     transform="translate(0,-448)" /><g
     id="g128"
     transform="translate(0,-448)" /><g
     id="g130"
     transform="translate(0,-448)" /><g
     id="g132"
     transform="translate(0,-448)" /><g
     id="g134"
     transform="translate(0,-448)" /><g
     id="g136"
     transform="translate(0,-448)" /><g
     id="g138"
     transform="translate(0,-448)" /><g
     id="g140"
     transform="translate(0,-448)" /><g
     id="g142"
     transform="translate(0,-448)" /></svg>