<?xml version="1.0" encoding="UTF-8" standalone="no"?>
<svg
   xmlns:dc="http://purl.org/dc/elements/1.1/"
   xmlns:cc="http://creativecommons.org/ns#"
   xmlns:rdf="http://www.w3.org/1999/02/22-rdf-syntax-ns#"
   xmlns:svg="http://www.w3.org/2000/svg"
   xmlns="http://www.w3.org/2000/svg"
   xmlns:sodipodi="http://sodipodi.sourceforge.net/DTD/sodipodi-0.dtd"
   xmlns:inkscape="http://www.inkscape.org/namespaces/inkscape"
   version="1.1"
   x="0px"
   y="0px"
   viewBox="0 0 64 64"
   enable-background="new 0 0 512 512"
   xml:space="preserve"
   id="svg272"
   sodipodi:docname="type_livestock.svg"
   width="64"
   height="64"
   inkscape:version="0.92.1 r"><metadata
     id="metadata278"><rdf:RDF><cc:Work
         rdf:about=""><dc:format>image/svg+xml</dc:format><dc:type
           rdf:resource="http://purl.org/dc/dcmitype/StillImage" /><dc:title></dc:title></cc:Work></rdf:RDF></metadata><defs
     id="defs276" /><sodipodi:namedview
     pagecolor="#ffffff"
     bordercolor="#666666"
     borderopacity="1"
     objecttolerance="10"
     gridtolerance="10"
     guidetolerance="10"
     inkscape:pageopacity="0"
     inkscape:pageshadow="2"
     inkscape:window-width="709"
     inkscape:window-height="480"
     id="namedview274"
     showgrid="false"
     fit-margin-top="0"
     fit-margin-left="0"
     fit-margin-right="0"
     fit-margin-bottom="0"
     inkscape:zoom="0.4609375"
     inkscape:cx="186.85349"
     inkscape:cy="187.5"
     inkscape:window-x="0"
     inkscape:window-y="23"
     inkscape:window-maximized="0"
     inkscape:current-layer="svg272" /><g
     id="g270"
     transform="matrix(0.17099968,0,0,0.1707066,-11.824032,-11.708379)"><path
       d="m 439.3,171.8 c -42,-32.4 -86.8,-6.6 -112.5,18.8 9,-37.8 23.6,-63 42.7,-72.8 18.7,-9.6 37.3,-2.5 42.5,-0.1 3.9,1.8 8.5,0.6 11.1,-2.8 l 4.1,-6.3 -4.6,-5.2 c -24.1,-27.3 -48.7,-38.6 -73,-33.7 -45,9 -73.3,71.9 -81.8,93.5 -3.8,-0.6 -7.7,-0.9 -11.6,-0.9 -3.9,0 -7.8,0.3 -11.6,0.9 -8.5,-21.6 -36.8,-84.5 -81.8,-93.5 -24.4,-4.9 -48.9,6.5 -73,33.7 -2.9,3.2 -3.1,8 -0.5,11.5 l 4.7,5.7 6.3,-2.9 c 5.3,-2.4 23.9,-9.5 42.6,0.1 19.1,9.9 33.7,35 42.7,72.8 -25.7,-25.4 -70.6,-51.2 -112.5,-18.8 -3.5,2.7 -4.8,7.2 -3.4,11.3 2.7,8.1 27.3,75.5 82.9,85.9 -4.5,16.7 -7,34 -7,50.9 0,72.8 45.6,123.6 110.8,123.6 65.2,0 110.8,-50.8 110.8,-123.6 0,-16.9 -2.5,-34.2 -7,-50.9 55.6,-10.4 80.1,-77.8 82.9,-85.9 1,-4.2 -0.4,-8.7 -3.8,-11.3 z M 352.8,86.3 c 11.6,-2.3 23.7,0.8 36.2,9.4 -8.4,0.1 -17.8,1.9 -27.4,6.9 -23.6,12.2 -40.6,39.8 -50.9,82 -8.2,-7.2 -17.1,-12.9 -26.6,-16.7 10.4,-26.2 36.1,-75 68.7,-81.6 z m -3,233.6 c 0,9.1 -0.9,17.8 -2.4,26 -18.3,-28.7 -52.8,-47.3 -91.4,-47.3 -38.6,0 -73.1,18.6 -91.4,47.3 -1.5,-8.2 -2.4,-16.9 -2.4,-26 0,-72.3 45.6,-140.7 93.8,-140.7 48.2,0 93.8,68.4 93.8,140.7 z M 150.4,102.6 c -9.6,-4.9 -19,-6.8 -27.4,-6.9 12.4,-8.6 24.5,-11.7 36.2,-9.4 35.5,7.1 60.4,60.9 68.7,81.5 -9.4,3.9 -18.3,9.6 -26.5,16.7 -10.4,-42.1 -27.4,-69.7 -51,-81.9 z m -63.2,79.8 c 39.7,-26 79.6,12.8 92.2,26.9 -9,12.8 -16.4,27.6 -22.1,43.2 -41.7,-6.3 -63.7,-53.8 -70.1,-70.1 z M 256,426.5 c -39.5,0 -69.8,-21.3 -84.3,-56.2 11.1,-32.3 45.1,-54.6 84.3,-54.6 39.3,0 73.3,22.3 84.3,54.6 -14.4,34.8 -44.8,56.2 -84.3,56.2 z m 98.7,-174 c -5.7,-15.6 -13.1,-30.3 -22.1,-43.2 12.6,-14.1 52.6,-52.9 92.2,-26.9 -6.4,16.3 -28.4,63.8 -70.1,70.1 z"
       id="path262"
       inkscape:connector-curvature="0" /><circle
       cx="217.60001"
       cy="268.70001"
       r="12.8"
       id="circle264" /><circle
       cx="294.39999"
       cy="268.70001"
       r="12.8"
       id="circle266" /><path
       d="m 274,395.3 c -1.1,0.2 -2.4,0.2 -4.2,-1.2 l -1,-0.7 c -0.6,-0.6 -3.1,-3.8 -3.9,-12.5 9.8,-6.3 16.8,-21.4 16.8,-26.9 0,-7.1 -11.4,-12.8 -25.6,-12.8 -14.2,0 -25.6,5.7 -25.6,12.8 0,5.5 7,20.6 16.8,26.9 -0.8,8.7 -3.3,11.9 -3.9,12.5 l -1,0.7 c -1.8,1.4 -3.1,1.4 -4.2,1.2 -6.4,-1.2 -14.5,-11.3 -17.4,-16 l -14.5,8.9 c 1.3,2.1 13.2,21 28.8,23.8 1.4,0.2 2.7,0.4 4.1,0.4 4.7,0 9.2,-1.5 13.2,-4.5 1,-0.6 2.3,-1.7 3.8,-3.3 1.4,1.6 2.8,2.7 3.8,3.3 4,3 8.5,4.5 13.2,4.5 1.3,0 2.7,-0.1 4.1,-0.4 15.6,-2.9 27.5,-21.7 28.8,-23.8 l -14.6,-8.9 c -2.9,4.6 -11.1,14.9 -17.5,16 z"
       id="path268"
       inkscape:connector-curvature="0" /></g></svg>