<svg xmlns="http://www.w3.org/2000/svg" viewBox="0 0 100 100" x="0px" y="0px"><title>Artboard 85</title><path d="M89,10H46a1,1,0,0,0-1,1V31a1,1,0,0,0,1,1H89a1,1,0,0,0,1-1V11A1,1,0,0,0,89,10ZM88,30H47V12H88Z"></path><path d="M50,29h9a1,1,0,0,0,1-1V14a1,1,0,0,0-1-1H50a1,1,0,0,0-1,1V28A1,1,0,0,0,50,29Zm1-14h7V27H51Z"></path><path d="M65,20h7a1,1,0,0,0,1-1V14a1,1,0,0,0-1-1H65a1,1,0,0,0-1,1v5A1,1,0,0,0,65,20Zm1-5h5v3H66Z"></path><path d="M77,20h7a1,1,0,0,0,1-1V14a1,1,0,0,0-1-1H77a1,1,0,0,0-1,1v5A1,1,0,0,0,77,20Zm1-5h5v3H78Z"></path><path d="M65,29h7a1,1,0,0,0,1-1V23a1,1,0,0,0-1-1H65a1,1,0,0,0-1,1v5A1,1,0,0,0,65,29Zm1-5h5v3H66Z"></path><path d="M77,29h7a1,1,0,0,0,1-1V23a1,1,0,0,0-1-1H77a1,1,0,0,0-1,1v5A1,1,0,0,0,77,29Zm1-5h5v3H78Z"></path><path d="M56,17H53a1,1,0,0,0,0,2h3a1,1,0,0,0,0-2Z"></path><path d="M56,20H53a1,1,0,0,0,0,2h3a1,1,0,0,0,0-2Z"></path><path d="M57,65H39a4,4,0,0,0,0,8h8V84.35l-8.41,3.74a1,1,0,0,0,.81,1.83L48,86.09l8.59,3.82a1,1,0,0,0,.81-1.83L49,84.35V73h8a4,4,0,0,0,0-8Zm0,6H39a2,2,0,0,1,0-4H57a2,2,0,0,1,0,4Z"></path><path d="M44.46,41.79A1,1,0,0,0,43,40.38l-3.42,3.42A1,1,0,1,0,41,45.21Z"></path><path d="M46.79,40.5l-5.87,5.88a1,1,0,1,0,1.41,1.41l5.88-5.87a1,1,0,0,0-1.41-1.41Z"></path><path d="M76,65h4a1,1,0,0,0,0-2H76a1,1,0,0,0,0,2Z"></path><path d="M80,73H76a1,1,0,0,0,0,2h4a1,1,0,0,0,0-2Z"></path><path d="M80,83H76a1,1,0,0,0,0,2h4a1,1,0,0,0,0-2Z"></path><path d="M90,36a1,1,0,0,0-1-1H68a1,1,0,0,0-1,1V54H60.93a2.44,2.44,0,0,0,.07-.5A2.5,2.5,0,0,0,59,51s0,0,0,0V38a1,1,0,0,0-1-1H38a1,1,0,0,0-1,1V51s0,0,0,0a2.47,2.47,0,0,0-2,3H20.58a5.11,5.11,0,0,0-4.05-3.43L12.07,37.05,26.89,19l.31.63a1,1,0,0,0,.1.15,6.93,6.93,0,0,0-.85,7.39l2,4.09a1,1,0,0,0,1.34.45l10.76-5.31A1,1,0,0,0,41,25l-2-4.09a6.92,6.92,0,0,0-6.4-3.86.94.94,0,0,0,0-.14l-1.77-3.59a1,1,0,0,0-1.34-.45l-.9.44h0l-.44-.9a1,1,0,0,0-1.79.88l.44.9h0l-.9.44A1,1,0,0,0,25.43,16L26,17.14a1,1,0,0,0-.44.29L9.23,37.37A1,1,0,0,0,10,39a1,1,0,0,0,.54-.19l3.91,11.87A5,5,0,0,0,10.92,54,1,1,0,0,0,10,55V89a1,1,0,0,0,2,0V60H66V89a1,1,0,0,0,1,1H89a1,1,0,0,0,1-1V60a1,1,0,0,0-.15-.5A1,1,0,0,0,90,59V55a1,1,0,0,0-.15-.5A1,1,0,0,0,90,54ZM34.38,19.33a4.91,4.91,0,0,1,2.84,2.49L38.8,25l-9,4.42-1.58-3.2a5.07,5.07,0,0,1,2.36-6.67,4.91,4.91,0,0,1,3.77-.25Zm-3.78-1.9a7,7,0,0,0-.87.35,7.16,7.16,0,0,0-.91.55L27.67,16l1.79-.88ZM68,70H88v8H68ZM88,54H83V37h5ZM76,37h5V54H76Zm-7,0h5V54H69ZM39,39H57V51H39ZM37.32,54a.5.5,0,0,1,.18-1h21a.5.5,0,0,1,.22,1l-.06,0H37.37ZM15.75,52.5A3.09,3.09,0,0,1,18.39,54H13.1A3.07,3.07,0,0,1,15.75,52.5ZM12,58V56H88v2Zm76,2v8H68V60ZM68,88V80H88v8Z"></path><path d="M72,50H71a1,1,0,0,0,0,2h1a1,1,0,0,0,0-2Z"></path><path d="M79,50H78a1,1,0,0,0,0,2h1a1,1,0,0,0,0-2Z"></path><path d="M85,52h1a1,1,0,0,0,0-2H85a1,1,0,0,0,0,2Z"></path><path d="M30.38,72H16.76a1,1,0,0,0-1,1.18l3,16a1,1,0,0,0,1,.82h7.62a1,1,0,0,0,1-.82l3-16a1,1,0,0,0-1-1.18ZM26.54,88h-6L18,74H29.17Z"></path></svg>