<svg xmlns:dc="http://purl.org/dc/elements/1.1/" xmlns:cc="http://creativecommons.org/ns#" xmlns:rdf="http://www.w3.org/1999/02/22-rdf-syntax-ns#" xmlns:svg="http://www.w3.org/2000/svg" xmlns="http://www.w3.org/2000/svg" xmlns:sodipodi="http://sodipodi.sourceforge.net/DTD/sodipodi-0.dtd" xmlns:inkscape="http://www.inkscape.org/namespaces/inkscape" version="1.1" x="0px" y="0px" viewBox="0 0 100 100"><g transform="translate(0,-952.36218)"><path style="text-indent:0;text-transform:none;direction:ltr;block-progression:tb;baseline-shift:baseline;color:#000000;enable-background:accumulate;" d="m 49.994505,969.36239 c -0.6142,0.011 -1.2381,0.22983 -1.8438,0.625 l -38,30 c -0.9762002,0.96921 -1.6623002,3.05621 -0.6562002,4.34371 1.0061002,1.2876 3.1221002,1.4603 4.3438002,0.375 l 36.1562,-28.53121 36.1562,28.53121 c 1.2216,1.0853 3.3823,0.9462 4.3438,-0.375 0.8437,-1.1592 0.636,-3.3774 -0.6562,-4.34371 l -13.8438,-10.9375 0,-16.6875 a 3.0003,3.0003 0 0 0 -3,-3 l -8,0 a 3.0003,3.0003 0 0 0 -3,3 l 0,5.65625 -10.1562,-8.03125 c -0.625,-0.43912 -1.2296,-0.63599 -1.8438,-0.625 z m 18,6 2,0 0,8.96875 -2,-1.59375 0,-7.375 z m -42,23.28125 -6,4.74996 0,28.9688 a 3.0003,3.0003 0 0 0 3,3 l 17,0 a 3.0003,3.0003 0 0 0 3,-3 l 0,-10 c 0,-3.9299 3.0701,-7 7,-7 3.9299,0 7,3.0701 7,7 l 0,10 a 3.0003,3.0003 0 0 0 3,3 l 17,0 a 3.0003,3.0003 0 0 0 3,-3 l 0,-28.9688 -6,-4.74996 0,30.71876 -11,0 0,-7 c 0,-7.1501 -5.8499,-13 -13,-13 -7.1501,0 -13,5.8499 -13,13 l 0,7 -11,0 0,-30.71876 z" fill="#000000" fill-opacity="1" stroke="none" marker="none" visibility="visible" display="inline" overflow="visible"></path></g></svg>