<svg xmlns:dc="http://purl.org/dc/elements/1.1/" xmlns:cc="http://creativecommons.org/ns#" xmlns:rdf="http://www.w3.org/1999/02/22-rdf-syntax-ns#" xmlns:svg="http://www.w3.org/2000/svg" xmlns="http://www.w3.org/2000/svg" xmlns:sodipodi="http://sodipodi.sourceforge.net/DTD/sodipodi-0.dtd" xmlns:inkscape="http://www.inkscape.org/namespaces/inkscape" fill="#000000" version="1.1" x="0px" y="0px" viewBox="0 0 100 100"><path style="font-size:medium;font-style:normal;font-variant:normal;font-weight:normal;font-stretch:normal;text-indent:0;text-align:start;text-decoration:none;line-height:normal;letter-spacing:normal;word-spacing:normal;text-transform:none;direction:ltr;block-progression:tb;writing-mode:lr-tb;text-anchor:start;baseline-shift:baseline;opacity:1;color:#000000;fill:#000000;fill-opacity:1;stroke:none;stroke-width:4.00000047999999970;marker:none;visibility:visible;display:inline;overflow:visible;enable-background:accumulate;font-family:Sans;-inkscape-font-specification:Sans" d="M 49.8125 19 A 2.0002002 2.0002002 0 0 0 48 21 L 48 35 L 35 35 A 2.0002002 2.0002002 0 0 0 34.8125 35 A 2.0021961 2.0021961 0 1 0 35 39 L 46.1875 39 L 34.59375 50.59375 A 2.0002002 2.0002002 0 0 0 34 52 L 34 57 L 19.25 57 L 28.78125 37.90625 A 2.0002002 2.0002002 0 0 0 26.90625 34.96875 A 2.0002002 2.0002002 0 0 0 25.1875 36.09375 L 14.21875 58.09375 A 2.0002002 2.0002002 0 0 0 16 61 L 19 61 L 19 75 A 2.0002002 2.0002002 0 0 0 21 77 L 34 77 L 34 79 A 2.0002002 2.0002002 0 0 0 36 81 L 64 81 A 2.0002002 2.0002002 0 0 0 66 79 L 66 77 L 79 77 A 2.0002002 2.0002002 0 0 0 81 75 L 81 61 L 84 61 A 2.0002002 2.0002002 0 0 0 85.78125 58.09375 L 74.8125 36.09375 A 2.0002002 2.0002002 0 0 0 73 35 L 52 35 L 52 31.15625 C 52.641903 31.27913 53.126498 31.473994 53.84375 31.8125 C 54.983681 32.350488 56.777777 33 60 33 A 2.0002002 2.0002002 0 0 0 62 31 L 62 23 A 2.0002002 2.0002002 0 0 0 60 21 C 57.222222 21 56.512256 20.665169 55.4375 20.1875 C 54.362744 19.709831 52.766666 19 50 19 A 2.0002002 2.0002002 0 0 0 49.8125 19 z M 52 23.1875 C 52.64572 23.32799 53.145429 23.516024 53.8125 23.8125 C 54.684543 24.200075 56.117103 24.602033 58 24.8125 L 58 28.84375 C 56.932885 28.704989 56.199943 28.48834 55.5625 28.1875 C 54.821507 27.83779 53.575863 27.436411 52 27.21875 L 52 23.1875 z M 53.8125 39 L 71.75 39 L 80.75 57 L 66 57 L 66 52 A 2.0002002 2.0002002 0 0 0 65.40625 50.59375 L 53.8125 39 z M 50 40.8125 L 62 52.8125 L 62 77 L 38 77 L 38 52.8125 L 50 40.8125 z M 50 48 C 46.709981 48 44 50.70998 44 54 C 44 57.290019 46.709981 60 50 60 C 53.29002 60 56 57.290019 56 54 C 56 50.70998 53.29002 48 50 48 z M 50 52 C 51.12826 52 52 52.871741 52 54 C 52 55.128258 51.12826 56 50 56 C 48.87174 56 48 55.128258 48 54 C 48 52.871741 48.87174 52 50 52 z M 23 61 L 34 61 L 34 73 L 23 73 L 23 61 z M 66 61 L 77 61 L 77 73 L 66 73 L 66 61 z "></path></svg>