<svg xmlns="http://www.w3.org/2000/svg" xmlns:xlink="http://www.w3.org/1999/xlink" version="1.1" x="0px" y="0px" viewBox="0 0 50 50" enable-background="new 0 0 50 50" xml:space="preserve"><g><g><path d="M23.6,29.6c0-0.1,0-0.2,0-0.2c-0.2,0-0.3,0-0.5,0c-0.2,0-0.4,0.1-0.5,0.1c-0.1,0-0.2,0-0.4,0.1c0,0,0,0.1,0,0.1    c0,0,0.1,0,0.1,0.1c0,0.1,0,0.2,0.1,0.3c0,0.1-0.1,0.2-0.1,0.2c0,0-0.1-0.1-0.1-0.2c0-0.1,0-0.3,0-0.4c-0.1,0-0.2,0-0.3,0    c-0.2,0-0.5,0-0.7,0c-0.1,0-0.1,0-0.1,0.2c0,0.7,0,1.4,0,2.1c0,0.9,0,1.8,0,2.6c0,1.7,0,3.5,0,5.2c0,0.2,0,0.4,0,0.7    c0.1,0,0.2,0,0.2,0c0.1,0,0.2,0,0.4,0c0.1,0,0.1,0,0.2,0c0.1,0,0.1,0,0.2,0c0-0.1,0.2-0.1,0.2,0c0,0,0.1-0.1,0.1-0.1    c0.1,0,0.2,0,0.3,0c0.1,0,0.2-0.1,0.3,0.1c0-0.1,0-0.2,0.1-0.2c0.1,0,0.3,0.1,0.4,0.1c0,0,0,0,0,0c0.1,0,0.1,0,0.2,0    c0.1,0.1,0.1,0.1,0.1-0.2c0-0.7,0-1.4,0-2.1c0-2.4,0-4.8,0-7.2c0,0,0-0.1,0-0.1C23.6,30.3,23.6,29.9,23.6,29.6z M21.9,38.4    c0.1-0.2,0.2-0.1,0.2,0.2C22.1,38.5,22,38.5,21.9,38.4z M22.4,36.7c0-0.2-0.1-0.3-0.1-0.5c0.1,0,0.2-0.1,0.2,0.2    C22.4,36.5,22.4,36.6,22.4,36.7z M22.5,33.5c0-0.2,0.1-0.3,0.1-0.5c0,0.2,0,0.3,0,0.4C22.6,33.4,22.5,33.5,22.5,33.5z"></path></g><g><path d="M28.2,29.6c0-0.1,0-0.2,0-0.2c-0.2,0-0.3,0-0.5,0c-0.2,0-0.4,0.1-0.5,0.1c-0.1,0-0.2,0-0.4,0.1c0,0,0,0.1,0,0.1    c0,0,0.1,0,0.1,0.1c0,0.1,0,0.2,0.1,0.3c0,0.1-0.1,0.2-0.1,0.2c0,0-0.1-0.1-0.1-0.2c0-0.1,0-0.3,0-0.4c-0.1,0-0.2,0-0.3,0    c-0.2,0-0.5,0-0.7,0c-0.1,0-0.1,0-0.1,0.2c0,0.7,0,1.4,0,2.1c0,0.9,0,1.8,0,2.6c0,1.7,0,3.5,0,5.2c0,0.2,0,0.4,0,0.7    c0.1,0,0.2,0,0.2,0c0.1,0,0.2,0,0.4,0c0.1,0,0.1,0,0.2,0c0.1,0,0.1,0,0.2,0c0-0.1,0.2-0.1,0.2,0c0,0,0.1-0.1,0.1-0.1    c0.1,0,0.2,0,0.3,0c0.1,0,0.2-0.1,0.3,0.1c0-0.1,0-0.2,0.1-0.2c0.1,0,0.3,0.1,0.4,0.1c0,0,0,0,0,0c0.1,0,0.1,0,0.2,0    c0.1,0.1,0.1,0.1,0.1-0.2c0-0.7,0-1.4,0-2.1c0-2.4,0-4.8,0-7.2c0,0,0-0.1,0-0.1C28.2,30.3,28.2,29.9,28.2,29.6z M26.6,38.4    c0.1-0.2,0.2-0.1,0.2,0.2C26.7,38.5,26.7,38.5,26.6,38.4z M27,36.7c0-0.2-0.1-0.3-0.1-0.5c0.1,0,0.2-0.1,0.2,0.2    C27.1,36.5,27.1,36.6,27,36.7z M27.1,33.5c0-0.2,0.1-0.3,0.1-0.5c0,0.2,0,0.3,0,0.4C27.2,33.4,27.2,33.5,27.1,33.5z"></path></g><g><path d="M41,21.1c0-0.1,0-0.1,0-0.2c0-0.3-0.1-0.6-0.2-0.9c-0.2-0.4-0.4-0.7-0.6-1.1c0,0,0-0.1,0-0.1c0.1-0.2,0-0.2-0.1-0.4    c-0.1-0.1-0.2-0.2-0.2-0.3c-0.2-0.3-0.4-0.5-0.5-0.8c-0.2-0.3-0.4-0.6-0.6-0.8c-0.1-0.1-0.2-0.2-0.2-0.3c-0.1-0.1-0.1-0.2-0.2-0.2    c-0.5-0.1-0.6-0.7-1.1-0.8c-0.3-0.1-0.5-0.5-0.9-0.6c-0.3-0.1-0.5-0.3-0.8-0.4c-0.5-0.2-1.1-0.4-1.6-0.6c-0.1,0-0.2-0.1-0.3-0.2    c0,0-0.1,0-0.1-0.1c-0.2-0.1-0.5,0-0.6-0.2c-0.2-0.3-0.5-0.2-0.7-0.4c-0.2-0.1-0.5-0.3-0.7-0.4c-0.1-0.1-0.2,0-0.2-0.1    c-0.5-0.2-1-0.5-1.6-0.6c0,0,0,0-0.1,0c-0.4-0.2-0.8-0.4-1.1-0.6c-0.2-0.1-0.4-0.2-0.6-0.3c-0.3-0.2-0.6-0.4-0.9-0.6    c0,0,0.1,0.1-3.2-0.6c-3.5-0.7-3.6,0.1-3.6,0.1c-0.3,0.4-0.6,0.7-1,1.1c0,0.1-0.1,0.1-0.1,0.2c0.2,0,0.3-0.1,0.4-0.1    c0,0,0,0.1,0,0.1c-0.2,0.1-0.3,0.2-0.5,0.1c-0.1,0-0.3,0-0.4,0.1c-0.2,0.1-0.3,0.3-0.4,0.4c-0.1,0.1-0.2,0.2-0.3,0.3c0,0,0,0,0,0    c0,0,0,0,0,0l0,0c-0.1,0.1-0.3,0.2-0.4,0.2c-0.2,0.1-0.5,0.3-0.6,0.5c-0.3,0.4-0.7,0.4-1,0.7c-0.2,0.2-0.6,0.3-0.9,0.5    c-0.1,0.1-0.3,0.1-0.4,0.2c-0.2,0.1-0.3,0.3-0.5,0.4c-0.4,0.3-0.9,0.5-1.3,0.9c-0.1,0.1-0.3,0.2-0.4,0.4c-0.2,0.3-0.6,0.5-0.8,0.7    c-0.1,0.1-0.2,0.2-0.3,0.3c-0.3,0.4-0.6,0.8-0.9,1.3c0,0.1-0.1,0.1-0.1,0.2c-0.3,0.5-0.5,1.1-0.8,1.6c-0.1,0.2-0.3,0.4-0.4,0.6    c0,0,0.1,0,0.1,0c-0.1,0.1-0.1,0.2-0.1,0.3c0,0.2-0.1,0.4-0.1,0.6C9.1,21.6,9,21.8,9,22.1c0.1,0,0.1,0,0.2,0    c0.1-0.2,0.2-0.4,0.3-0.7c0-0.1,0.1-0.2,0.2-0.2l1.5,0.1c0.1,0,0.2,0.1,0.2,0.2c0,0.1,0,0.2-0.1,0.3l-0.3,0.2c0.2,0,0.5,0,0.7,0    c0.1-0.4,0.3-0.9,0.3-0.9c0-0.1,0.1-0.2,0.2-0.2l1.1,0.1l0,0c0.1,0,0.2-0.1,0.3,0c0,0,0,0,0.1,0l0.1,0c0.1,0,0.2,0.1,0.2,0.2    c0,0.1,0,0.2-0.1,0.3l-0.2,0.1c-0.1,0.4-0.4,1.1-0.4,1.1c0,0.1-0.1,0.2-0.2,0.2c0,0,0,0,0,0l-0.7-0.1c-0.1,0.2-0.2,0.5-0.4,0.7    c0,0,0,0.1-0.1,0.1c-0.2,0.5-0.5,1-0.7,1.5c-0.1,0.2-0.2,0.4-0.3,0.6c-0.2,0.4-0.2,0.9-0.5,1.2c-0.1,0.2-0.2,0.4-0.2,0.6    c0,0,0,0,0,0c-0.1,0-0.1,0-0.1,0c0,0,0-0.1,0-0.1c0,0,0,0-0.1,0c-0.1,0.1,0,0.1,0,0.2c0,0,0,0-0.1,0c0,0,0,0.1,0.1,0.1    c-0.1,0-0.1,0.1-0.1,0.1c0.1,0,0.1,0,0.1,0.1l0,0c-0.1,0.1,0,0.1,0,0.1c0,0,0,0,0,0c0,0,0,0,0,0c0,0,0.1,0.1,0.1,0.1l-0.1,0    c0,0.1,0.1,0.2,0,0.2c0.2,0,0.1,0.2,0.1,0.2c0,0,0,0-0.1,0c0.1,0.1,0,0.2,0,0.4l-0.1,0c0,0.1,0.2,0.1,0.2,0.2l-0.1,0    c0,0.1,0,0.2,0,0.3l-0.1,0c0,0,0,0.1,0.1,0.1c-0.2,0.1,0.1,0.3-0.2,0.4l0.2,0c0,0.1,0,0.1-0.1,0.1l0,0c-0.1,0,0,0.1,0,0.1    c0,0,0.1,0.1,0.1,0c-0.1,0.1,0,0.4-0.2,0.4c0,0.2,0.2,0.3,0.1,0.4l0,0c0,0.1-0.1,0.2-0.2,0.1c0,0.1,0.2,0.2,0.1,0.3l0,0    c0,0,0,0.1,0,0.1c0,0,0,0,0,0c0,0,0,0.1,0,0.1l0,0c-0.1,0.1,0.1,0.3,0,0.4c0,0-0.1,0-0.1,0c0.1,0.1,0.1,0.2,0.1,0.2c0,0,0,0,0,0    l0,0c0,0,0,0,0,0c0,0-0.1,0.1-0.1,0.1c0,0,0,0,0,0.1c0,0,0,0.1,0,0.1c0,0,0,0,0,0l-0.1,0.1h0l0,0c0,0,0,0,0,0c0,0,0,0,0,0.1    c0.1,0,0.1,0,0.1,0c0,0,0,0,0,0c0,0.2-0.1,0.5-0.1,0.7c0,0,0,0-0.1,0c0,0,0,0.1,0,0.1c0,0,0,0,0,0c0,0,0,0,0,0c0,0,0,0,0,0.1    c0,0,0,0,0,0c0,0.1,0,0.2,0,0.2c0,0,0,0,0,0c0,0.1,0.1,0.2,0.2,0.3c0,0,0,0,0,0.1l0-0.1c-0.1,0-0.1,0.1-0.2,0.1    c0,0.1,0.1,0,0.1,0.1c-0.1,0,0,0-0.1,0c0,0.1,0.1,0.2,0.2,0.2c0,0,0,0,0,0c0,0.1,0.1,0.2,0.1,0.2l0,0C9.3,34.9,9.5,35,9.4,35    c0,0,0-0.1-0.1,0c-0.1,0.1,0.2,0.1,0.1,0.2c0,0,0,0,0,0c0,0.1,0,0.1,0,0.2c-0.2,0.1,0,0.3-0.1,0.4c0.1,0,0.1,0,0.1,0c0,0,0,0,0,0    c0,0,0.1,0,0.1,0.1c-0.1,0,0.1,0.1,0,0.1c0,0,0,0,0,0.1c0-0.1-0.1,0-0.2,0c0,0.1,0.2,0.1,0.1,0.2l-0.1,0.1c0.1,0,0.1,0.1,0.1,0.1    c0,0-0.1,0-0.1,0c0,0,0,0.1,0,0.1l0,0c0,0.1,0.1,0.2,0,0.3l-0.2,0c-0.1,0.1,0.1,0.1,0,0.2c0.1,0,0,0,0.1,0c0,0,0-0.1,0-0.1    l0.1,0.1l-0.1-0.1c0.1,0.1,0.1,0.1,0.1,0c0.1,0.1-0.1,0.1,0,0.2c0,0-0.1,0-0.1,0c0.1,0.1-0.1,0.1,0,0.2c0,0,0,0,0,0    c0,0,0,0.1,0.1,0.1l0,0c0,0,0.1,0,0,0.1c0,0,0.1,0.1,0.1,0c0,0,0,0.1-0.1,0c0,0.1,0.2,0,0.1,0.1c0,0,0,0,0,0c0,0,0,0,0,0.1    c0-0.1-0.1,0-0.1-0.1c-0.1,0,0,0.1-0.1,0.1c0.1,0,0.1,0,0.2,0c0,0,0,0,0,0l0.1,0c0,0,0,0,0,0.1l0,0c0,0-0.1,0.1-0.1,0.2    c0,0-0.1-0.1-0.1,0c0,0.1,0,0-0.1,0.1c0,0.1,0.1,0,0.1,0.1c0,0,0,0,0.1,0c0,0.1,0,0.1,0,0.2c0,0,0-0.1,0.1,0    c-0.1,0-0.1,0.1-0.1,0.1l0,0c0,0-0.1,0-0.1,0c0,0,0,0,0,0c0,0-0.2,0-0.2,0c0,0.1,0.1,0.1,0.2,0c0,0.1,0.2,0.1,0.1,0.2    c0,0-0.1,0.1-0.2,0.2c0.1,0,0.1-0.1,0.1,0c-0.2,0.1,0.1,0.2,0,0.3l-0.1,0c0,0,0,0.1,0,0.1l0.1,0c0,0,0,0.1-0.1,0.1    c0.1,0.1,0,0.1,0,0.2c0-0.1,0,0,0-0.1c0,0.1,0,0.1,0,0.1c0,0-0.1,0-0.1,0c0.1,0,0.1,0.1,0.1,0.2l0,0c0,0.1,0,0.1,0,0.2    c0,0.1,0,0.1,0,0.2l0,0l0,0l0,0l0,0l0,0c0.1,0.1,0.2,0.1,0.3,0.1c0.5,0,1.1,0.1,1.6,0.2c0.7,0.1,1.3,0.1,2,0.1c0.2,0,0.4,0,0.6,0    c0.3,0,0.6,0.1,0.9,0.2c0.1-0.2,0.3-0.2,0.5,0c0,0,0.1,0,0.2,0c0.3,0,0.6,0,1,0c0,0,0.1,0,0.1,0c0.2-0.2,0.5-0.1,0.7-0.1    c0.5,0,0.9,0,1.4,0c0-0.1,0-0.2,0-0.3c0-0.8,0-1.6,0-2.4c0-0.1-0.1-0.3-0.1-0.4c0-0.1,0.1-0.2,0.1-0.3c0-1.6,0.1-3.3,0.1-4.9    c0-0.4,0.1-0.8,0.1-1.2c0-0.1-0.1-0.2-0.1-0.4c0,0,0.1-0.1,0.1-0.2c0-0.8,0.1-1.6,0.1-2.4c0-0.3,0.1-0.4,0.4-0.5    c0.5-0.1,1-0.1,1.5-0.1c0.5,0,1,0,1.4-0.1c0.4,0,0.9-0.1,1.3-0.2c0.1,0,0.2,0.1,0.3,0.1c0-0.2,0.1-0.2,0.3-0.2c2,0,4,0,5.9,0    c0.3,0,0.5,0.1,0.5,0.4c0,0.3,0.1,0.7,0.1,1c0,1.9,0.1,3.7,0.1,5.6c0,0.9,0,1.7,0.1,2.6c0,0.1,0,0.2,0,0.2c0.1,0,0.2,0,0.3,0.1    c0.2,0.1,0.3,0.2,0.5,0.3c0.2,0.1,0.1,0.3,0.1,0.4c0,0.1-0.1,0.2-0.2,0.2c-0.2,0.1-0.4,0.1-0.5,0.2c0,0.7,0,1.3,0.1,1.9    c0,0.1,0.1,0.2,0.1,0.3c0.5,0,0.9,0,1.4,0l0.1,0c0,0,0.1,0,0.1,0c0.3,0,0.6,0,1,0c0.1,0,0.1,0,0.2,0c0.2-0.2,0.4-0.2,0.5,0    c0.3-0.1,0.6-0.2,0.9-0.2c0.2,0,0.4,0,0.6,0c0.7-0.1,1.3-0.1,2-0.1c0.5,0,1.1-0.2,1.6-0.2c0.2,0,0.3,0,0.3-0.1l0,0l0,0    c0,0,0.1-0.1,0.1-0.1c0-0.1,0-0.1,0-0.2l0,0c0-0.1,0-0.1,0.1-0.2c0,0-0.1,0-0.1,0c0-0.1,0.1-0.1,0-0.1c-0.1,0,0,0,0,0.1    c0-0.1-0.1-0.1,0-0.2c-0.1,0-0.1-0.1-0.1-0.1l0.1,0c0,0,0-0.1,0-0.1l-0.1,0c-0.1-0.1,0.2-0.2,0-0.3c0.1,0,0,0.1,0.1,0    c0-0.1-0.2-0.1-0.2-0.2c-0.1-0.1,0.1-0.1,0.1-0.2c0,0,0.1,0,0.2,0c0-0.1-0.1-0.1-0.2,0c0,0,0,0,0,0c0,0,0,0-0.1,0l0,0    c0,0,0-0.1-0.1-0.1c0,0,0.1,0,0.1,0c-0.1-0.1,0-0.1,0-0.2c0,0,0.1,0,0.1,0c0-0.1,0.1-0.1,0.1-0.1c-0.1,0-0.1,0-0.1-0.1    c0-0.1-0.1,0-0.1,0c0.1-0.1,0-0.1-0.1-0.2l0,0c0,0,0,0,0-0.1l0.1,0c0,0,0,0,0,0c0,0,0.1,0,0.2,0c0,0,0-0.1-0.1-0.1    c0,0.1-0.1,0-0.1,0.1c0,0,0,0,0-0.1c0,0,0,0,0,0c-0.1-0.1,0.1,0,0.1-0.1c-0.1,0-0.1,0-0.1,0c0,0,0.1,0,0.1,0c0-0.1,0-0.1,0-0.1    l0,0c0.1,0,0,0,0.1-0.1c0,0,0,0,0,0c0.1,0-0.1-0.1,0-0.2c0,0-0.1,0-0.1,0c0.1-0.1-0.1-0.1,0-0.2c0.1,0,0.1,0,0.1,0l-0.1,0.1    l0.1-0.1c0,0,0,0.1,0,0.1c0.1,0,0,0,0.1,0c-0.1-0.1,0.1-0.1,0-0.2l-0.2,0c-0.1-0.1,0.1-0.2,0-0.3l0,0c0.1,0,0-0.1,0-0.1    c-0.1,0-0.1,0-0.1,0c0,0,0-0.1,0.1-0.1l-0.1-0.1c0-0.1,0.2-0.1,0.1-0.2c-0.1,0-0.1,0-0.2,0c0,0,0-0.1,0-0.1c0,0,0.1-0.1,0-0.1    c0,0,0.1,0,0.1-0.1c0,0,0,0,0,0c0,0,0-0.1,0.1,0c-0.2-0.1,0-0.3-0.1-0.4c0-0.1,0-0.2,0-0.2c0,0,0,0,0,0c-0.1-0.1,0.2-0.1,0.1-0.2    c-0.1,0-0.1,0.1-0.1,0c-0.2,0,0-0.1-0.1-0.2l0,0c-0.1,0,0.1-0.1,0.1-0.2c0,0,0,0,0,0c0.1-0.1,0.1-0.2,0.2-0.2c-0.1,0,0,0-0.1,0    c0,0,0.1,0,0.1-0.1c0,0-0.1-0.1-0.2-0.1l0,0.1c-0.1,0-0.1,0,0-0.1c0,0,0,0,0,0c-0.2-0.1-0.3-0.1-0.3-0.3c0-0.1-0.1-0.3-0.1-0.5    c-0.1-0.4-0.2-0.8-0.1-1.2c0.1,0,0.2,0.1,0.3,0.1c0-0.1,0-0.2,0.1-0.2c0,0-0.1,0-0.1,0c0-0.1,0.1-0.3,0-0.4l0,0c0,0,0.1-0.1,0-0.1    c0,0,0,0,0,0c0,0,0.1-0.1,0-0.1l0,0c-0.1-0.1,0.1-0.2,0.1-0.3c-0.1,0-0.2-0.1-0.2-0.1l0,0c0-0.2,0.1-0.3,0.1-0.4    c-0.2-0.1-0.1-0.3-0.2-0.4c0,0,0.1,0,0.1,0c0,0,0.1-0.1,0-0.1l0,0c-0.1,0-0.1-0.1-0.1-0.1l0.2,0c-0.2-0.1,0-0.4-0.2-0.4    c0,0,0-0.1,0.1-0.1l-0.1,0c0-0.1-0.1-0.1,0-0.3l-0.1,0c0-0.1,0.2-0.1,0.2-0.2l-0.1,0c0-0.1-0.1-0.2,0-0.4c0,0-0.1,0-0.1,0    c0-0.1-0.1-0.2,0.1-0.2c-0.1,0,0-0.1,0-0.2l-0.1,0c0.1-0.1,0.1-0.1,0.1-0.1c-0.2-0.1-0.2-0.3-0.3-0.5c0,0,0,0,0,0c0,0,0,0,0-0.1    c-0.1-0.2-0.1-0.4-0.2-0.6c-0.2-0.4-0.3-0.8-0.5-1.2c-0.1-0.2-0.2-0.4-0.3-0.6c-0.2-0.5-0.5-1-0.7-1.5c0,0,0-0.1-0.1-0.1    c-0.2-0.3-0.3-0.7-0.5-1c0-0.1,0-0.1,0-0.2c0-0.1-0.1-0.3-0.1-0.4c0,0.1-0.1,0.2-0.2,0.4c0,0.1-0.1,0.1-0.2,0.1c0,0,0,0,0,0    c0,0,0,0,0,0l-0.7-0.1l-0.8-0.1c-0.1,0-0.2-0.1-0.2-0.2c0-0.1,0-0.2,0.1-0.3l0.6-0.4c0.1-0.3,0.2-0.6,0.2-0.6    c0-0.1,0.1-0.2,0.2-0.2l0.6,0l0.3-0.2c0.1,0,0.2-0.1,0.3,0c0.2,0.1,0.2,0.1-0.2,1.2c0.1,0,0.2,0,0.4,0c0.1-0.2,0.2-0.5,0.3-0.8    c0-0.1,0.1-0.2,0.2-0.2l1.5,0.1c0.1,0,0.2,0.1,0.2,0.2c0,0.1,0,0.2-0.1,0.3l-0.3,0.2c0,0.1,0,0.1-0.1,0.2c0.5,0,0.9,0,1.4,0    c0.1,0,0.3,0,0.4,0c0.1,0,0.2,0,0.2,0C41,21.3,41.1,21.2,41,21.1z M16,22.8l-0.5,0c0,0.1,0,0.1,0,0.1c0,0.1-0.1,0.2-0.2,0.2    l-0.9-0.1L14,23.1c0,0-0.1,0-0.1,0c0,0-0.1,0-0.1,0c-0.2-0.1-0.3-0.1,0.4-1.8c0-0.1,0.1-0.2,0.2-0.2l0.5,0c0-0.1,0-0.1,0-0.1    c0-0.1,0.1-0.2,0.2-0.2l0.9,0.1l0.3-0.2c0.1,0,0.2-0.1,0.3,0c0.2,0.1,0.3,0.1-0.4,1.8C16.2,22.8,16.1,22.8,16,22.8z M18.9,21.8    c-0.1,0.4-0.4,1.1-0.4,1.1c0,0.1-0.1,0.2-0.2,0.2c0,0,0,0,0,0L17.1,23l0,0c-0.1,0-0.2,0.1-0.3,0c0,0,0,0-0.1,0l-0.1,0    c-0.1,0-0.2-0.1-0.2-0.2c0-0.1,0-0.2,0.1-0.3l0.2-0.1c0.1-0.4,0.4-1.1,0.4-1.1c0-0.1,0.1-0.2,0.2-0.2l1.1,0.1l0,0    c0.1,0,0.2-0.1,0.3,0c0,0,0,0,0.1,0l0.1,0c0.1,0,0.2,0.1,0.2,0.2c0,0.1,0,0.2-0.1,0.3L18.9,21.8z M20.8,22.8    C20.8,22.8,20.8,22.8,20.8,22.8l-1.2-0.1l0,0c-0.1,0-0.2,0.1-0.3,0c0,0,0,0-0.1,0l-0.1,0c-0.1,0-0.2-0.1-0.2-0.2    c0-0.1,0-0.2,0.1-0.3l0.2-0.1c0.1-0.4,0.4-1.1,0.4-1.1c0-0.1,0.1-0.2,0.2-0.2l1.1,0.1l0,0c0.1,0,0.2-0.1,0.3,0c0,0,0,0,0.1,0    l0.1,0c0.1,0,0.2,0.1,0.2,0.2c0,0.1,0,0.2-0.1,0.3l-0.2,0.1c-0.1,0.4-0.4,1.1-0.4,1.1C21,22.7,20.9,22.8,20.8,22.8z M23.8,22.6    l-0.5,0c0,0.1,0,0.1,0,0.1c0,0.1-0.1,0.2-0.2,0.2l-0.9-0.1l-0.3,0.2c0,0-0.1,0-0.1,0c0,0-0.1,0-0.1,0c-0.2-0.1-0.3-0.1,0.4-1.8    c0-0.1,0.1-0.2,0.2-0.2l0.5,0c0-0.1,0-0.1,0-0.1c0-0.1,0.1-0.2,0.2-0.2l0.9,0.1l0.3-0.2c0.1,0,0.2-0.1,0.3,0    c0.2,0.1,0.3,0.1-0.4,1.8C24,22.6,23.9,22.6,23.8,22.6z M26.2,22.7c0,0.1-0.1,0.2-0.2,0.2c0,0,0,0,0,0l-1.1-0.1l0,0    c-0.1,0-0.2,0.1-0.2,0c0,0,0,0-0.1,0l-0.1,0c-0.1,0-0.2-0.1-0.2-0.2c0-0.1,0-0.2,0.1-0.3l0.2-0.1C24.7,21.7,25,21,25,21    c0-0.1,0.1-0.2,0.2-0.2l1.1,0.1l0,0c0.1,0,0.2-0.1,0.2,0c0,0,0,0,0.1,0l0.1,0c0.1,0,0.2,0.1,0.2,0.2c0,0.1,0,0.2-0.1,0.3l-0.2,0.1    C26.5,22,26.2,22.7,26.2,22.7z M28.6,22.6C28.6,22.6,28.6,22.6,28.6,22.6l-1.2-0.1l0,0c-0.1,0-0.2,0.1-0.2,0c0,0,0,0-0.1,0l-0.1,0    c-0.1,0-0.2-0.1-0.2-0.2c0-0.1,0-0.2,0.1-0.3l0.2-0.1c0.1-0.4,0.4-1.1,0.4-1.1c0-0.1,0.1-0.2,0.2-0.2l1.1,0.1l0,0    c0.1,0,0.2-0.1,0.2,0c0,0,0,0,0.1,0l0.1,0c0.1,0,0.2,0.1,0.2,0.2c0,0.1,0,0.2-0.1,0.3l-0.2,0.1c-0.1,0.4-0.4,1.1-0.4,1.1    C28.8,22.5,28.7,22.6,28.6,22.6z M31.8,22.2c0,0.1-0.1,0.2-0.2,0.2l-0.5,0c0,0.1,0,0.1,0,0.1c0,0.1-0.1,0.2-0.2,0.2l-0.9-0.1    l-0.3,0.2c0,0-0.1,0-0.1,0c0,0-0.1,0-0.1,0c-0.2-0.1-0.3-0.1,0.4-1.8c0-0.1,0.1-0.2,0.2-0.2l0.5,0c0-0.1,0-0.1,0-0.1    c0-0.1,0.1-0.2,0.2-0.2l0.9,0.1l0.3-0.2c0.1,0,0.2-0.1,0.3,0C32.4,20.6,32.5,20.6,31.8,22.2z M34.6,21.2l-0.2,0.1    c-0.1,0.4-0.4,1.1-0.4,1.1c0,0.1-0.1,0.2-0.2,0.2c0,0,0,0,0,0l-1.1-0.1l0,0c-0.1,0-0.2,0.1-0.2,0c0,0,0,0-0.1,0l-0.1,0    c-0.1,0-0.2-0.1-0.2-0.2c0-0.1,0-0.2,0.1-0.3l0.2-0.1c0.1-0.4,0.4-1.1,0.4-1.1c0-0.1,0.1-0.2,0.2-0.2l1.1,0.1l0,0    c0.1,0,0.2-0.1,0.2,0c0,0,0,0,0.1,0l0.1,0c0.1,0,0.2,0.1,0.2,0.2C34.8,21,34.7,21.2,34.6,21.2z M36.7,16.9c0,0,0.1,0,0.1,0    c0,0,0.1,0,0.1,0.1c0,0.1,0,0.2,0,0.2C36.6,17.2,36.6,17.2,36.7,16.9z M32.3,19.9c0.3-0.4,0.4-0.4,0.7-0.1    c-0.4,0.1-0.5,0.1-0.5,0.6c-0.1-0.1-0.3-0.1-0.3-0.2C32.2,20.1,32.3,20,32.3,19.9z M29.6,13.7c0.3,0.1,0.6,0.3,0.8,0.4    c0.1,0,0.1,0.2,0.1,0.3c0.1-0.2,0.2-0.2,0.4,0c0,0,0.1,0.1,0.2,0.1c0.2,0.1,0.4,0.2,0.6,0.3c-0.2,0.2-0.2,0.2-0.3,0.3    c-0.6-0.3-1.1-0.5-1.7-0.8C29.3,14.1,29.3,14.1,29.6,13.7z M25.7,10.9c0.2-0.3,0.4-0.3,0.6,0c0,0.1,0,0.1,0.1,0.3    c-0.3,0-0.6,0.1-1,0.1C25.5,11.1,25.6,11,25.7,10.9z M22.5,19.7c0.3-0.4,0.5-0.8,0.8-1.3c0.1,0,0.2,0.1,0.2,0.2c0,0.1,0,0.2,0,0.3    c-0.2,0.3-0.4,0.5-0.5,0.7C22.8,19.9,22.7,19.8,22.5,19.7z M24.7,10.4c-0.3,0.1-0.6,0.3-0.9,0.4c-0.1-0.2-0.2-0.4-0.2-0.6    C23.9,10.3,24.3,10.3,24.7,10.4z M23.6,16.4c-0.1,0.1-0.2,0.2-0.3,0.4c-0.2-0.2-0.3-0.4-0.4-0.6c0,0,0.1-0.1,0.1-0.1    C23.1,16.1,23.3,16.2,23.6,16.4z M22.5,10.3c0.4,0.1,0.5,0.3,0.4,0.7C22.5,10.8,22.3,10.6,22.5,10.3z M17.9,19    c0,0.1-0.1,0.1-0.2,0.1c-0.1,0-0.2-0.1-0.3-0.2c0,0,0-0.2,0.1-0.2c0.1-0.1,0.1-0.2,0.2-0.3c0.1-0.1,0.2-0.3,0.4-0.4    c-0.1-0.2,0.2-0.3,0.3-0.5c0,0,0.1-0.1,0.2-0.1c0.1-0.4,0.4-0.6,0.7-0.7c0.1,0.2,0.1,0.4-0.1,0.6c-0.3,0.3-0.5,0.5-0.7,0.8    C18.3,18.4,18.1,18.7,17.9,19z M19.6,18.1c0,0.1,0.1,0.2,0.1,0.4c0.1,0,0.1-0.1,0.2-0.1c0,0.1,0,0.2,0,0.3c0,0-0.1,0-0.1,0.1    c-0.2-0.2-0.3-0.3-0.5-0.5C19.4,18.1,19.5,18.1,19.6,18.1z M20.9,16.9c0.2,0.3,0.7,0.2,0.8,0.6c-0.1,0.1-0.2,0.2-0.3,0.2    c-0.1,0-0.2,0-0.3,0c-0.2-0.2-0.3-0.4-0.4-0.6C20.7,17.1,20.8,17.1,20.9,16.9z M16.9,15.4c0.6-0.5,1.2-0.9,1.8-1.3    c0.4-0.3,0.7-0.5,1.1-0.8c0.1,0,0.2,0,0.3,0c0-0.1,0-0.1,0-0.2c0.1,0,0.3,0,0.3,0.1c0,0.1,0,0.3,0,0.3c-0.2,0.2-0.5,0.4-0.8,0.6    c-0.8,0.6-1.6,1.2-2.4,1.8c-0.1,0.1-0.2,0.3-0.3,0.1C16.7,15.7,16.8,15.4,16.9,15.4z M15.8,18.8c0-0.1,0.1-0.2,0.1-0.3    c0.3-0.3,0.5-0.7,0.7-1.1c0.2-0.3,0.5-0.7,0.7-0.9c0.4-0.4,0.8-0.7,1.2-1c0.4-0.3,0.6-0.4,1-0.3c-0.1,0.2-0.2,0.4-0.4,0.6    c-0.3,0.2-0.7,0.4-1,0.6c-0.1,0.1-0.3,0.3-0.4,0.4c-0.3,0.4-0.7,0.8-0.9,1.3c-0.4,0.6-0.7,1.2-1,1.8c-0.1,0.2-0.2,0.4-0.5,0.4    c-0.2-0.4,0.1-0.7,0.2-1C15.7,19.1,15.8,19,15.8,18.8z M13.7,19c0.4-0.7,0.9-1.3,1.4-1.9c0.1-0.1,0.2-0.1,0.4-0.2    c0,0.2,0,0.4-0.1,0.4c-0.3,0.4-0.6,0.8-0.9,1.2c-0.1,0.2-0.3,0.4-0.4,0.6c-0.3,0.5-0.5,1-0.8,1.5c-0.3,0-0.4-0.3-0.3-0.5    C13.3,19.7,13.5,19.4,13.7,19z M12.3,19.8C12.2,19.8,12.2,19.8,12.3,19.8c0-0.2,0.1-0.3,0.2-0.5c0.2-0.3,0.3-0.6,0.5-0.8    c0.1-0.2,0.3-0.4,0.5-0.5c0,0,0.2,0,0.2,0c0,0,0,0.1,0,0.2c-0.2,0.5-0.5,1-0.8,1.5C12.7,19.9,12.5,19.7,12.3,19.8z M35.2,18.5    c-0.3-0.5-0.7-0.9-1-1.3c-0.2-0.2-0.5-0.5-0.7-0.7c-0.1-0.1-0.2-0.1-0.2-0.1c0-0.1,0-0.3,0-0.3c0.1,0,0.3-0.1,0.4,0    c0.3,0.2,0.6,0.4,0.8,0.7c0.4,0.5,0.8,1.1,1.2,1.6c0.1,0.1,0.1,0.2,0.1,0.4C35.5,18.8,35.4,18.8,35.2,18.5z M36.8,18.8    c-0.2,0-0.3-0.2-0.3-0.4c0-0.1,0-0.1,0-0.2c-0.5-0.9-1.1-1.9-2-2.5c-0.2-0.2,0-0.3-0.1-0.6c0.2,0.1,0.3,0.1,0.4,0.1    c0.3,0.3,0.6,0.5,0.9,0.9c0.5,0.6,1,1.3,1.3,2.1c0,0.1,0,0.1,0,0.2C37,18.6,36.9,18.8,36.8,18.8z M39.3,19.7    c-0.4-0.2-0.7-0.4-1-0.6c0,0,0,0,0-0.1c0.3,0,0.5-0.1,0.8-0.1c0.1,0,0.3-0.1,0.4-0.1c0.1,0,0.1,0,0.2,0.1    C39.5,19.2,39.5,19.5,39.3,19.7z M40.1,20.2c0.1-0.2,0.1-0.4,0.2-0.6c0.1,0,0.2,0,0.3,0C40.4,19.8,40.5,20.2,40.1,20.2z     M12.4,29.1c0.3-0.6,0.5-1.1,0.8-1.7c0.1-0.3,0.1-0.3,0.6-0.2c-0.1,0.3-0.2,0.6-0.3,0.9c-0.1,0.4-0.3,0.7-0.4,1.1    c-0.2,0.4-0.4,0.7-0.6,1.1c0,0-0.1,0.1-0.1,0.1c-0.1,0-0.2,0.1-0.3,0.1c0-0.1-0.1-0.2-0.1-0.3c0,0,0-0.1,0-0.1    C12.1,29.7,12.3,29.4,12.4,29.1z M11.9,33.3C11.9,33.3,11.9,33.3,11.9,33.3c-0.2,0-0.4,0-0.4-0.4C11.7,33,11.8,33.1,11.9,33.3z     M12.1,28.1c-0.1,0.3-0.2,0.5-0.3,0.8c-0.1-0.1-0.2-0.1-0.3-0.2C11.7,28.5,11.7,28.2,12.1,28.1z M12.4,33.5    c-0.2,0.4-0.3,0.9-0.5,1.3c-0.1,0.2-0.2,0.3-0.4,0.1c-0.1-0.1-0.2-0.1-0.3-0.2c0-0.2,0.1-0.3,0.1-0.5c0.1,0.1,0.2,0.2,0.3,0.3    c0-0.2,0.1-0.4,0.1-0.6c0,0,0,0-0.1,0c0.2-0.2,0.4-0.5,0.5-0.7c0.1,0,0.2,0.1,0.3,0.1C12.4,33.3,12.4,33.4,12.4,33.5z M14.2,38.2    c-0.2-0.1-0.5-0.2-0.7-0.3c-0.2-0.1-0.3-0.1-0.5-0.2c-0.4-0.1-0.4-0.1-0.3-0.6C13.2,37.5,13.7,37.8,14.2,38.2    C14.2,38.1,14.2,38.2,14.2,38.2z M14.3,34c0,0-0.1,0-0.2,0c-0.3-0.1-0.1-0.3,0-0.5C14.3,33.7,14.4,33.9,14.3,34z M14.2,29.8    c-0.1,0.2-0.2,0.4-0.3,0.7c-0.1,0.2-0.3,0.4-0.6,0.3c0.1-0.3,0.2-0.5,0.3-0.8c0.3-0.8,0.7-1.5,1.1-2.3c0.1-0.1,0.2-0.3,0.3-0.4    c0.1-0.1,0.2,0,0.2,0.1c0,0.2-0.1,0.4-0.2,0.6c-0.1,0.2-0.1,0.3-0.2,0.5C14.6,28.9,14.4,29.4,14.2,29.8z M15.4,34.1    c-0.2-0.3-0.3-0.5-0.5-0.7c0,0,0-0.1,0-0.2c0.1,0,0.2,0,0.2,0.1c0.2,0.1,0.3,0.3,0.5,0.5C15.6,33.8,15.5,34,15.4,34.1z M15.3,31.6    c0.3,0,0.4,0.2,0.5,0.4C15.4,32.1,15.5,31.7,15.3,31.6z M18.1,30.9c-0.1,0.2-0.2,0.3-0.3,0.5c-0.1-0.2-0.1-0.4-0.1-0.6    C17.8,30.8,18,30.9,18.1,30.9z M17,26.8c0.2,0.2,0.2,0.2-0.4,0.7C16.5,27.4,16.6,27.2,17,26.8z M16.2,30.6    C16.2,30.6,16.2,30.5,16.2,30.6c0.2,0,0.5,0,0.6,0.1c0.1,0.2,0.1,0.4,0.2,0.6c0,0,0,0-0.1,0.1C16.6,31.1,16.4,30.9,16.2,30.6z     M17.7,39.2C17.4,39.3,17,39,17,38.6c0.3,0.1,0.5,0.3,0.7,0.4C17.8,39,17.7,39.1,17.7,39.2z M18.5,38.1c-0.4-0.2-0.8-0.4-1.1-0.6    c-0.1,0-0.1,0-0.2-0.1c-0.3,0-0.4-0.1-0.3-0.4c0.1,0,0.3,0,0.4-0.1c0,0,0,0.1,0,0.2c0.3-0.3,0.6-0.3,0.9-0.3c0,0,0,0.1,0,0.1    c-0.2,0-0.4,0.1-0.7,0.1c0,0,0,0,0,0.1c0.2,0.1,0.3,0.1,0.5,0.2C18.4,37.4,18.5,37.6,18.5,38.1z M19.9,27.9    C19.9,27.8,19.9,27.8,19.9,27.9c0-0.2,0-0.3,0.1-0.5C20.3,27.6,20,27.7,19.9,27.9z M35.3,27.8c-0.1-0.1-0.1-0.2-0.1-0.2    c0.1-0.2,0.1-0.5,0.4-0.4C35.6,27.3,35.5,27.5,35.3,27.8z M38,30.9c0.2,0.7,0.4,1.4,0.6,2.1c0.1,0.4,0.1,0.4-0.4,0.6    c-0.1-0.4-0.2-0.7-0.3-1c-0.1-0.4-0.3-0.9-0.4-1.3c-0.1-0.5-0.2-0.9-0.3-1.4c0-0.1,0-0.1,0-0.2c0-0.1,0.1-0.2,0.2-0.3    c0.1,0.1,0.2,0.1,0.3,0.2c0,0,0.1,0.1,0.1,0.1C37.8,30.1,37.9,30.5,38,30.9z M35.3,26.7C35.3,26.7,35.3,26.7,35.3,26.7    c0.2-0.1,0.4-0.3,0.6,0.1C35.7,26.8,35.5,26.8,35.3,26.7z M38.9,31.5c-0.1-0.3-0.2-0.6-0.4-0.9c0.2,0,0.3,0,0.5,0    C39,30.9,39.2,31.2,38.9,31.5z M34.7,26.9c-0.2-0.5-0.3-1-0.5-1.6c-0.1-0.2,0-0.4,0.3-0.4c0.1,0,0.2-0.1,0.4-0.1    c0.1,0.2,0.2,0.3,0.3,0.6c-0.2,0-0.3,0-0.5,0c0.1,0.2,0.2,0.4,0.3,0.6c0,0,0,0,0.1,0c0,0.4,0,0.7,0.1,1.1c-0.1,0-0.2,0.1-0.3,0.1    C34.8,27.1,34.8,27,34.7,26.9z M29.7,24c0.3-0.1,0.6-0.2,0.9-0.3c0.2-0.1,0.4-0.1,0.6-0.2c0.4-0.2,0.4-0.2,0.7,0.3    C31.1,23.8,30.4,23.9,29.7,24C29.7,24,29.7,24,29.7,24z M32.6,27.8c0-0.1,0.1-0.1,0.2-0.2c0.4-0.1,0.4,0.2,0.4,0.4    C32.8,28.1,32.6,28,32.6,27.8z M35.8,31.6c-0.1-0.3-0.2-0.5-0.3-0.8c-0.1-0.3,0-0.6,0.4-0.7c0.1,0.3,0.2,0.6,0.3,0.9    c0.3,1,0.5,1.9,0.7,2.9c0,0.2,0,0.4,0,0.6c0,0.1-0.2,0.2-0.3,0c-0.1-0.2-0.2-0.4-0.3-0.7c-0.1-0.2-0.1-0.4-0.2-0.6    C36.1,32.6,35.9,32.1,35.8,31.6z M31.6,28.6c0.4,0.1,0.7,0.2,0.9,0.3c0.1,0,0.1,0.1,0.1,0.1c-0.1,0-0.2,0.1-0.2,0.1    c-0.2,0-0.5,0-0.8-0.1C31.5,28.9,31.6,28.7,31.6,28.6z M33.5,30.7c-0.2,0.2-0.5,0.1-0.7,0C33,30.4,33.3,30.7,33.5,30.7z     M31.5,33.5c0-0.2-0.1-0.4-0.1-0.6c0.2,0.2,0.4,0.3,0.5,0.4C31.8,33.3,31.6,33.4,31.5,33.5z M35.5,36.3c-0.3-0.1-0.3-0.1-0.2-0.9    C35.5,35.4,35.6,35.6,35.5,36.3z M33.5,32.3c0,0,0,0.1,0,0.1c-0.2,0.1-0.5,0.3-0.6,0.2c-0.2-0.1-0.4-0.3-0.6-0.5c0,0,0-0.1,0-0.1    C32.7,32.1,33.1,32.2,33.5,32.3z M25.8,25.7c0.2-0.3,0.7-0.4,1.1,0c-0.4,0.1-0.7,0.1-1,0.2C25.8,25.9,25.7,25.7,25.8,25.7z     M32.1,37.5c0,0,0.1,0,0.1,0c0.1,0.2,0.1,0.3,0.2,0.6C32,38,32.2,37.7,32.1,37.5z"></path></g></g></svg>